<?xml version="1.0" encoding="UTF-8" standalone="no"?>
<!-- Created with Inkscape (http://www.inkscape.org/) -->

<svg
   xmlns:dc="http://purl.org/dc/elements/1.1/"
   xmlns:cc="http://creativecommons.org/ns#"
   xmlns:rdf="http://www.w3.org/1999/02/22-rdf-syntax-ns#"
   xmlns:svg="http://www.w3.org/2000/svg"
   xmlns="http://www.w3.org/2000/svg"
   xmlns:sodipodi="http://sodipodi.sourceforge.net/DTD/sodipodi-0.dtd"
   xmlns:inkscape="http://www.inkscape.org/namespaces/inkscape"
   width="70"
   height="170"
   viewBox="0 0 18.520833 44.979165"
   version="1.1"
   id="svg4815"
   inkscape:version="0.92.3 (2405546, 2018-03-11)"
   sodipodi:docname="LeftSlot.svg">
  <defs
     id="defs4809" />
  <sodipodi:namedview
     id="base"
     pagecolor="#ffffff"
     bordercolor="#666666"
     borderopacity="1.0"
     inkscape:pageopacity="0.0"
     inkscape:pageshadow="2"
     inkscape:zoom="1.3393435"
     inkscape:cx="-5.863435"
     inkscape:cy="81.279303"
     inkscape:document-units="px"
     inkscape:current-layer="layer1"
     showgrid="false"
     units="px"
     inkscape:window-width="1536"
     inkscape:window-height="811"
     inkscape:window-x="-8"
     inkscape:window-y="-8"
     inkscape:window-maximized="1"
     showguides="true"
     inkscape:guide-bbox="true">
    <sodipodi:guide
       position="-11.339286,48.758927"
       orientation="0,1"
       id="guide5404"
       inkscape:locked="false" />
  </sodipodi:namedview>
  <metadata
     id="metadata4812">
    <rdf:RDF>
      <cc:Work
         rdf:about="">
        <dc:format>image/svg+xml</dc:format>
        <dc:type
           rdf:resource="http://purl.org/dc/dcmitype/StillImage" />
        <dc:title />
      </cc:Work>
    </rdf:RDF>
  </metadata>
  <g
     inkscape:label="Layer 1"
     inkscape:groupmode="layer"
     id="layer1"
     transform="translate(0,-252.02084)">
    <rect
       rx="0"
       ry="0"
       y="252.02083"
       x="7.1343002"
       height="44.979164"
       width="11.386534"
       id="rect5396"
       style="opacity:1;fill:#e9db96;fill-opacity:1;fill-rule:evenodd;stroke:none;stroke-width:0.26499996;stroke-miterlimit:4;stroke-dasharray:none;stroke-dashoffset:0;stroke-opacity:1" />
    <path
       style="opacity:1;fill:#e9db96;fill-opacity:1;fill-rule:evenodd;stroke:none;stroke-width:0.26499996;stroke-miterlimit:4;stroke-dasharray:none;stroke-dashoffset:0;stroke-opacity:1"
       d="M 1.8376305,252.02083 H 16.683203 c 1.018048,0 1.837631,0.81958 1.837631,1.83763 v 41.3039 c 0,1.01805 -0.819583,1.83763 -1.837631,1.83763 H 1.8376305 C 0.81958321,296.99999 0,296.18041 0,295.16236 v -41.3039 c 0,-1.01805 0.81958321,-1.83763 1.8376305,-1.83763 z"
       id="rect5360" />
    <g
       id="g5445">
      <g
         id="g5402">
        <path
           style="opacity:1;fill:#f2e4a8;fill-opacity:1;fill-rule:evenodd;stroke:none;stroke-width:0.26499999;stroke-miterlimit:4;stroke-dasharray:none;stroke-dashoffset:0;stroke-opacity:1"
           d="M 4.8108513,252.55 H 15.58087 c 1.62874,0 2.939965,1.31123 2.939965,2.93997 v 2.05757 c 0,1.62874 -1.311225,2.93996 -2.939965,2.93996 H 4.8108513 c -1.6287404,0 -2.9399647,-1.31122 -2.9399647,-2.93996 v -2.05757 c 0,-1.62874 1.3112243,-2.93997 2.9399647,-2.93997 z"
           id="rect5370" />
        <path
           style="opacity:1;fill:#f2e4a8;fill-opacity:1;fill-rule:evenodd;stroke:none;stroke-width:0.26499999;stroke-miterlimit:4;stroke-dasharray:none;stroke-dashoffset:0;stroke-opacity:1"
           d="m 8.8867111,252.55 h 9.5619339 v 7.9375 H 8.8867111 Z"
           id="rect5398" />
      </g>
      <g
         transform="translate(0,8.9958369)"
         id="g5410">
        <path
           style="opacity:1;fill:#f2e4a8;fill-opacity:1;fill-rule:evenodd;stroke:none;stroke-width:0.26499999;stroke-miterlimit:4;stroke-dasharray:none;stroke-dashoffset:0;stroke-opacity:1"
           d="M 4.8108513,252.55 H 15.58087 c 1.62874,0 2.939965,1.31123 2.939965,2.93997 v 2.05757 c 0,1.62874 -1.311225,2.93996 -2.939965,2.93996 H 4.8108513 c -1.6287404,0 -2.9399647,-1.31122 -2.9399647,-2.93996 v -2.05757 c 0,-1.62874 1.3112243,-2.93997 2.9399647,-2.93997 z"
           id="rect5406" />
        <path
           style="opacity:1;fill:#f2e4a8;fill-opacity:1;fill-rule:evenodd;stroke:none;stroke-width:0.26499999;stroke-miterlimit:4;stroke-dasharray:none;stroke-dashoffset:0;stroke-opacity:1"
           d="m 8.8867111,252.55 h 9.5619339 v 7.9375 H 8.8867111 Z"
           id="rect5408" />
      </g>
      <g
         id="g5416"
         transform="translate(0,17.99167)">
        <path
           style="opacity:1;fill:#f2e4a8;fill-opacity:1;fill-rule:evenodd;stroke:none;stroke-width:0.26499999;stroke-miterlimit:4;stroke-dasharray:none;stroke-dashoffset:0;stroke-opacity:1"
           d="M 4.8108513,252.55 H 15.58087 c 1.62874,0 2.939965,1.31123 2.939965,2.93997 v 2.05757 c 0,1.62874 -1.311225,2.93996 -2.939965,2.93996 H 4.8108513 c -1.6287404,0 -2.9399647,-1.31122 -2.9399647,-2.93996 v -2.05757 c 0,-1.62874 1.3112243,-2.93997 2.9399647,-2.93997 z"
           id="rect5412" />
        <path
           style="opacity:1;fill:#f2e4a8;fill-opacity:1;fill-rule:evenodd;stroke:none;stroke-width:0.26499999;stroke-miterlimit:4;stroke-dasharray:none;stroke-dashoffset:0;stroke-opacity:1"
           d="m 8.8867111,252.55 h 9.5619339 v 7.9375 H 8.8867111 Z"
           id="rect5414" />
      </g>
      <g
         transform="translate(0,26.987503)"
         id="g5422">
        <path
           style="opacity:1;fill:#f2e4a8;fill-opacity:1;fill-rule:evenodd;stroke:none;stroke-width:0.26499999;stroke-miterlimit:4;stroke-dasharray:none;stroke-dashoffset:0;stroke-opacity:1"
           d="M 4.8108513,252.55 H 15.58087 c 1.62874,0 2.939965,1.31123 2.939965,2.93997 v 2.05757 c 0,1.62874 -1.311225,2.93996 -2.939965,2.93996 H 4.8108513 c -1.6287404,0 -2.9399647,-1.31122 -2.9399647,-2.93996 v -2.05757 c 0,-1.62874 1.3112243,-2.93997 2.9399647,-2.93997 z"
           id="rect5418" />
        <path
           style="opacity:1;fill:#f2e4a8;fill-opacity:1;fill-rule:evenodd;stroke:none;stroke-width:0.26499999;stroke-miterlimit:4;stroke-dasharray:none;stroke-dashoffset:0;stroke-opacity:1"
           d="m 8.8867111,252.55 h 9.5619339 v 7.9375 H 8.8867111 Z"
           id="rect5420" />
      </g>
      <g
         id="g5428"
         transform="translate(0,35.983336)">
        <path
           style="opacity:1;fill:#f2e4a8;fill-opacity:1;fill-rule:evenodd;stroke:none;stroke-width:0.26499999;stroke-miterlimit:4;stroke-dasharray:none;stroke-dashoffset:0;stroke-opacity:1"
           d="M 4.8108513,252.55 H 15.58087 c 1.62874,0 2.939965,1.31123 2.939965,2.93997 v 2.05757 c 0,1.62874 -1.311225,2.93996 -2.939965,2.93996 H 4.8108513 c -1.6287404,0 -2.9399647,-1.31122 -2.9399647,-2.93996 v -2.05757 c 0,-1.62874 1.3112243,-2.93997 2.9399647,-2.93997 z"
           id="rect5424" />
        <path
           style="opacity:1;fill:#f2e4a8;fill-opacity:1;fill-rule:evenodd;stroke:none;stroke-width:0.26499999;stroke-miterlimit:4;stroke-dasharray:none;stroke-dashoffset:0;stroke-opacity:1"
           d="m 8.8867111,252.55 h 9.5619339 v 7.9375 H 8.8867111 Z"
           id="rect5426" />
      </g>
    </g>
    <rect
       style="opacity:1;fill:#d2c37f;fill-opacity:1;fill-rule:evenodd;stroke:none;stroke-width:0.26499999;stroke-miterlimit:4;stroke-dasharray:none;stroke-dashoffset:0;stroke-opacity:1"
       id="rect5372"
       width="0.45697698"
       height="43.920818"
       x="18.04405"
       y="252.55" />
    <text
       xml:space="preserve"
       style="font-style:normal;font-variant:normal;font-weight:normal;font-stretch:normal;font-size:10.58333302px;line-height:1.25;font-family:'Times New Roman';-inkscape-font-specification:'Times New Roman, ';letter-spacing:0px;word-spacing:0px;fill:#000000;fill-opacity:1;stroke:none;stroke-width:0.26458332"
       x="-6.7748117"
       y="259.70361"
       id="text8901" />
    <g
       aria-label="1"
       style="font-style:normal;font-variant:normal;font-weight:normal;font-stretch:normal;font-size:10.58333302px;line-height:1.25;font-family:'Times New Roman';-inkscape-font-specification:'Times New Roman, ';letter-spacing:0px;word-spacing:0px;fill:#454545;fill-opacity:1;stroke:none;stroke-width:0.26458332"
       id="text889">
      <path
         d="m 7.2282991,253.50959 -0.2497694,6.12366 -1.8775771,-0.0861 0.1033529,-4.07383 -0.6890191,0.4737 -0.6459554,-1.47277 1.4038764,-1.05076 z"
         style="font-style:normal;font-variant:normal;font-weight:normal;font-stretch:normal;font-size:8.81944466px;font-family:'Luckiest Guy';-inkscape-font-specification:'Luckiest Guy';fill:#454545;fill-opacity:1;stroke-width:0.26458332"
         id="path911" />
    </g>
    <g
       aria-label="2"
       style="font-style:normal;font-variant:normal;font-weight:normal;font-stretch:normal;font-size:10.58333302px;line-height:1.25;font-family:'Times New Roman';-inkscape-font-specification:'Times New Roman, ';letter-spacing:0px;word-spacing:0px;fill:#454545;fill-opacity:1;stroke:none;stroke-width:0.26458332"
       id="text893">
      <path
         d="m 8.3393425,264.63395 q 0,0.34451 -0.1248848,0.65888 -0.1248847,0.31005 -0.3315904,0.58566 -0.2023994,0.2713 -0.4650879,0.50385 -0.2583822,0.22824 -0.5253771,0.41341 h 1.3608128 l -0.1033529,1.79145 -4.0307618,-0.1378 v -1.56752 q 0.2282376,-0.0775 0.478007,-0.18518 0.2540758,-0.11196 0.4952325,-0.25407 0.245463,-0.14211 0.4607815,-0.31867 0.2196249,-0.17657 0.3832669,-0.38327 0.1679484,-0.21101 0.2626885,-0.45648 0.099047,-0.24546 0.099047,-0.52968 0,-0.16364 -0.060289,-0.28853 -0.055983,-0.12488 -0.1593357,-0.2067 -0.1033529,-0.0861 -0.2411567,-0.12489 -0.1334975,-0.0431 -0.2885268,-0.0431 -0.129191,0 -0.2626885,0.0301 -0.1334974,0.0258 -0.2626885,0.0775 -0.1291911,0.0517 -0.2454631,0.12919 -0.1119656,0.0732 -0.2023993,0.16795 l -0.3789606,-1.6881 q 0.1593357,-0.15933 0.3660414,-0.26699 0.2067058,-0.10766 0.4349434,-0.17226 0.2282375,-0.0689 0.4650879,-0.0991 0.2368503,-0.0301 0.4650879,-0.0301 0.5081516,0 0.9474012,0.18517 0.4392497,0.18087 0.7622274,0.50385 0.3272841,0.31867 0.512458,0.75792 0.1894803,0.43925 0.1894803,0.9474 z"
         style="font-style:normal;font-variant:normal;font-weight:normal;font-stretch:normal;font-size:8.81944466px;font-family:'Luckiest Guy';-inkscape-font-specification:'Luckiest Guy';fill:#454545;fill-opacity:1;stroke-width:0.26458332"
         id="path914" />
    </g>
    <text
       xml:space="preserve"
       style="font-style:normal;font-variant:normal;font-weight:normal;font-stretch:normal;font-size:10.58333302px;line-height:1.25;font-family:'Times New Roman';-inkscape-font-specification:'Times New Roman, ';letter-spacing:0px;word-spacing:0px;fill:#000000;fill-opacity:1;stroke:none;stroke-width:0.26458332"
       x="4.0991011"
       y="274.33148"
       id="text897"><tspan
         sodipodi:role="line"
         id="tspan895"
         x="4.0991011"
         y="283.72546"
         style="stroke-width:0.26458332"></tspan></text>
    <g
       aria-label="3"
       style="font-style:normal;font-variant:normal;font-weight:normal;font-stretch:normal;font-size:10.58333302px;line-height:1.25;font-family:'Times New Roman';-inkscape-font-specification:'Times New Roman, ';letter-spacing:0px;word-spacing:0px;fill:#454545;fill-opacity:1;stroke:none;stroke-width:0.26458332"
       id="text901">
      <path
         d="m 8.5029845,275.5683 q 0,0.57275 -0.1851739,0.99477 -0.1808675,0.41772 -0.5081516,0.69763 -0.3272841,0.27561 -0.7837592,0.41341 -0.4521688,0.1335 -0.9947714,0.1335 -0.245463,0 -0.5038452,-0.0474 -0.2583822,-0.0474 -0.512458,-0.12919 -0.2540758,-0.0818 -0.4952325,-0.19379 -0.2368503,-0.11196 -0.443556,-0.24115 l 0.163642,-1.73116 q 0.1636421,0.11196 0.3660414,0.21531 0.2023994,0.0991 0.4177179,0.18087 0.2196248,0.0775 0.4392497,0.12489 0.2239312,0.0474 0.4306369,0.0474 0.1205784,0 0.2454631,-0.0172 0.129191,-0.0215 0.2325439,-0.0732 0.1033529,-0.0517 0.1679484,-0.14641 0.068902,-0.0947 0.068902,-0.24547 0,-0.0947 -0.086127,-0.17656 -0.086127,-0.0818 -0.2067057,-0.1378 -0.1205783,-0.0603 -0.2497694,-0.0904 -0.1291911,-0.0344 -0.2153185,-0.0344 -0.060289,0 -0.1464166,0.009 -0.081821,0.004 -0.1679484,0.0172 -0.086127,0.0129 -0.1679484,0.0388 -0.077515,0.0215 -0.1205783,0.056 l 0.025838,-1.23162 q 0.073208,0.009 0.1378038,0.0129 0.064596,0.004 0.1378038,0.004 0.150723,0 0.3272841,-0.0258 0.1765612,-0.0301 0.3272841,-0.099 0.1507229,-0.0732 0.2497694,-0.19809 0.1033529,-0.12489 0.1033529,-0.32298 0,-0.14211 -0.077515,-0.22824 -0.077515,-0.0904 -0.1937867,-0.1378 -0.1119656,-0.0474 -0.245463,-0.0646 -0.1334975,-0.0172 -0.2411567,-0.0172 -0.3488159,0 -0.6890191,0.12058 -0.3358969,0.12057 -0.594279,0.35312 l -0.3617351,-1.56752 q 0.396186,-0.32298 0.9000313,-0.49093 0.5081516,-0.17225 1.0206095,-0.17225 0.4693943,0 0.8957249,0.1378 0.4306369,0.1335 0.757921,0.40049 0.3272841,0.26269 0.5210707,0.65027 0.1937866,0.38757 0.1937866,0.89572 0,0.14642 -0.043064,0.29714 -0.043064,0.15072 -0.1162719,0.29283 -0.073208,0.14211 -0.1722548,0.267 -0.099047,0.12058 -0.2110121,0.21101 0.1808675,0.0818 0.2971395,0.21963 0.1162719,0.1378 0.1851739,0.30575 0.068902,0.16795 0.09474,0.35743 0.025838,0.18517 0.025838,0.36604 z"
         style="font-style:normal;font-variant:normal;font-weight:normal;font-stretch:normal;font-size:8.81944466px;font-family:'Luckiest Guy';-inkscape-font-specification:'Luckiest Guy';fill:#454545;fill-opacity:1;stroke-width:0.26458332"
         id="path917" />
    </g>
    <g
       aria-label="4"
       style="font-style:normal;font-variant:normal;font-weight:normal;font-stretch:normal;font-size:10.58333302px;line-height:1.25;font-family:'Times New Roman';-inkscape-font-specification:'Times New Roman, ';letter-spacing:0px;word-spacing:0px;fill:#454545;fill-opacity:1;stroke:none;stroke-width:0.26458332"
       id="text905">
      <path
         d="m 8.5977246,284.56127 -0.3789605,0.009 -0.077515,1.86035 -1.946479,0.17226 0.1033528,-1.98954 -2.2996013,0.0517 0.6373427,-3.78099 h 1.6278077 l -0.4737007,2.6355 0.5684408,-0.0172 0.163642,-3.26423 h 1.8689644 l -0.1291911,3.19533 0.3358968,-0.0172 z"
         style="font-style:normal;font-variant:normal;font-weight:normal;font-stretch:normal;font-size:8.81944466px;font-family:'Luckiest Guy';-inkscape-font-specification:'Luckiest Guy';fill:#454545;fill-opacity:1;stroke-width:0.26458332"
         id="path920" />
    </g>
    <g
       aria-label="5"
       style="font-style:normal;font-variant:normal;font-weight:normal;font-stretch:normal;font-size:10.58333302px;line-height:1.25;font-family:'Times New Roman';-inkscape-font-specification:'Times New Roman, ';letter-spacing:0px;word-spacing:0px;fill:#454545;fill-opacity:1;stroke:none;stroke-width:0.26458332"
       id="text909">
      <path
         d="m 8.5891119,293.41336 q 0,0.55983 -0.2023994,0.97324 -0.198093,0.41341 -0.5426025,0.68471 -0.3445096,0.2713 -0.8095975,0.4048 -0.4650879,0.1335 -0.9947713,0.1335 -0.2540758,0 -0.4995389,-0.0344 -0.245463,-0.0388 -0.4866197,-0.099 -0.2368504,-0.0646 -0.4737007,-0.14642 -0.2325439,-0.0818 -0.4693943,-0.17656 l 0.1636421,-1.71393 q 0.1550293,0.0861 0.3315904,0.15933 0.1765612,0.0732 0.3617351,0.12489 0.1894802,0.0517 0.3789605,0.0818 0.1937866,0.0301 0.3746541,0.0301 0.1076593,0 0.2626886,-0.0172 0.1550293,-0.0215 0.2971395,-0.0732 0.1421101,-0.056 0.2411566,-0.14642 0.1033529,-0.0947 0.1033529,-0.24546 0,-0.14211 -0.081821,-0.24546 -0.077515,-0.10335 -0.2067057,-0.16795 -0.1248848,-0.0689 -0.2842204,-0.10766 -0.1593357,-0.0388 -0.3229777,-0.0603 -0.1593357,-0.0215 -0.3057523,-0.0258 -0.1421102,-0.004 -0.2368503,-0.004 -0.1937866,0 -0.396186,0.0172 -0.198093,0.0172 -0.3875732,0.0689 l 0.1722548,-3.47954 3.4881592,-0.0947 0.09474,1.80006 -2.1617974,-0.12058 -0.043064,0.76654 q 0.1937866,-0.0474 0.3875732,-0.0689 0.1937867,-0.0258 0.3875733,-0.0258 0.3918796,0 0.7277764,0.12919 0.3402032,0.12488 0.5899726,0.36173 0.2540758,0.23685 0.396186,0.57275 0.1464166,0.33159 0.1464166,0.745 z"
         style="font-style:normal;font-variant:normal;font-weight:normal;font-stretch:normal;font-size:8.81944466px;font-family:'Luckiest Guy';-inkscape-font-specification:'Luckiest Guy';fill:#454545;fill-opacity:1;stroke-width:0.26458332"
         id="path923" />
    </g>
  </g>
</svg>
