<?xml version="1.0" encoding="UTF-8" standalone="no"?>
<!-- Created with Inkscape (http://www.inkscape.org/) -->

<svg
   xmlns:dc="http://purl.org/dc/elements/1.1/"
   xmlns:cc="http://creativecommons.org/ns#"
   xmlns:rdf="http://www.w3.org/1999/02/22-rdf-syntax-ns#"
   xmlns:svg="http://www.w3.org/2000/svg"
   xmlns="http://www.w3.org/2000/svg"
   xmlns:sodipodi="http://sodipodi.sourceforge.net/DTD/sodipodi-0.dtd"
   xmlns:inkscape="http://www.inkscape.org/namespaces/inkscape"
   width="70"
   height="170"
   viewBox="0 0 18.520833 44.979165"
   version="1.1"
   id="svg4815"
   inkscape:version="0.92.3 (2405546, 2018-03-11)"
   sodipodi:docname="LeftSlot.svg">
  <defs
     id="defs4809" />
  <sodipodi:namedview
     id="base"
     pagecolor="#ffffff"
     bordercolor="#666666"
     borderopacity="1.0"
     inkscape:pageopacity="0.0"
     inkscape:pageshadow="2"
     inkscape:zoom="3.7882354"
     inkscape:cx="24.093005"
     inkscape:cy="102.28452"
     inkscape:document-units="px"
     inkscape:current-layer="layer1"
     showgrid="false"
     units="px"
     inkscape:window-width="1536"
     inkscape:window-height="811"
     inkscape:window-x="-8"
     inkscape:window-y="-8"
     inkscape:window-maximized="1"
     showguides="true"
     inkscape:guide-bbox="true">
    <sodipodi:guide
       position="-11.339286,48.758927"
       orientation="0,1"
       id="guide5404"
       inkscape:locked="false" />
  </sodipodi:namedview>
  <metadata
     id="metadata4812">
    <rdf:RDF>
      <cc:Work
         rdf:about="">
        <dc:format>image/svg+xml</dc:format>
        <dc:type
           rdf:resource="http://purl.org/dc/dcmitype/StillImage" />
        <dc:title></dc:title>
      </cc:Work>
    </rdf:RDF>
  </metadata>
  <g
     inkscape:label="Layer 1"
     inkscape:groupmode="layer"
     id="layer1"
     transform="translate(0,-252.02084)">
    <rect
       rx="0"
       ry="0"
       y="252.02083"
       x="7.1343002"
       height="44.979164"
       width="11.386534"
       id="rect5396"
       style="opacity:1;fill:#e9db96;fill-opacity:1;fill-rule:evenodd;stroke:none;stroke-width:0.26499996;stroke-miterlimit:4;stroke-dasharray:none;stroke-dashoffset:0;stroke-opacity:1" />
    <path
       style="opacity:1;fill:#e9db96;fill-opacity:1;fill-rule:evenodd;stroke:none;stroke-width:0.26499996;stroke-miterlimit:4;stroke-dasharray:none;stroke-dashoffset:0;stroke-opacity:1"
       d="M 1.8376305,252.02083 H 16.683203 c 1.018048,0 1.837631,0.81958 1.837631,1.83763 v 41.3039 c 0,1.01805 -0.819583,1.83763 -1.837631,1.83763 H 1.8376305 C 0.81958321,296.99999 0,296.18041 0,295.16236 v -41.3039 c 0,-1.01805 0.81958321,-1.83763 1.8376305,-1.83763 z"
       id="rect5360" />
    <g
       id="g5445">
      <g
         id="g5402">
        <path
           style="opacity:1;fill:#f2e4a8;fill-opacity:1;fill-rule:evenodd;stroke:none;stroke-width:0.26499999;stroke-miterlimit:4;stroke-dasharray:none;stroke-dashoffset:0;stroke-opacity:1"
           d="M 4.8108513,252.55 H 15.58087 c 1.62874,0 2.939965,1.31123 2.939965,2.93997 v 2.05757 c 0,1.62874 -1.311225,2.93996 -2.939965,2.93996 H 4.8108513 c -1.6287404,0 -2.9399647,-1.31122 -2.9399647,-2.93996 v -2.05757 c 0,-1.62874 1.3112243,-2.93997 2.9399647,-2.93997 z"
           id="rect5370" />
        <path
           style="opacity:1;fill:#f2e4a8;fill-opacity:1;fill-rule:evenodd;stroke:none;stroke-width:0.26499999;stroke-miterlimit:4;stroke-dasharray:none;stroke-dashoffset:0;stroke-opacity:1"
           d="m 8.8867111,252.55 h 9.5619339 v 7.9375 H 8.8867111 Z"
           id="rect5398" />
      </g>
      <g
         transform="translate(0,8.9958369)"
         id="g5410">
        <path
           style="opacity:1;fill:#f2e4a8;fill-opacity:1;fill-rule:evenodd;stroke:none;stroke-width:0.26499999;stroke-miterlimit:4;stroke-dasharray:none;stroke-dashoffset:0;stroke-opacity:1"
           d="M 4.8108513,252.55 H 15.58087 c 1.62874,0 2.939965,1.31123 2.939965,2.93997 v 2.05757 c 0,1.62874 -1.311225,2.93996 -2.939965,2.93996 H 4.8108513 c -1.6287404,0 -2.9399647,-1.31122 -2.9399647,-2.93996 v -2.05757 c 0,-1.62874 1.3112243,-2.93997 2.9399647,-2.93997 z"
           id="rect5406" />
        <path
           style="opacity:1;fill:#f2e4a8;fill-opacity:1;fill-rule:evenodd;stroke:none;stroke-width:0.26499999;stroke-miterlimit:4;stroke-dasharray:none;stroke-dashoffset:0;stroke-opacity:1"
           d="m 8.8867111,252.55 h 9.5619339 v 7.9375 H 8.8867111 Z"
           id="rect5408" />
      </g>
      <g
         id="g5416"
         transform="translate(0,17.99167)">
        <path
           style="opacity:1;fill:#f2e4a8;fill-opacity:1;fill-rule:evenodd;stroke:none;stroke-width:0.26499999;stroke-miterlimit:4;stroke-dasharray:none;stroke-dashoffset:0;stroke-opacity:1"
           d="M 4.8108513,252.55 H 15.58087 c 1.62874,0 2.939965,1.31123 2.939965,2.93997 v 2.05757 c 0,1.62874 -1.311225,2.93996 -2.939965,2.93996 H 4.8108513 c -1.6287404,0 -2.9399647,-1.31122 -2.9399647,-2.93996 v -2.05757 c 0,-1.62874 1.3112243,-2.93997 2.9399647,-2.93997 z"
           id="rect5412" />
        <path
           style="opacity:1;fill:#f2e4a8;fill-opacity:1;fill-rule:evenodd;stroke:none;stroke-width:0.26499999;stroke-miterlimit:4;stroke-dasharray:none;stroke-dashoffset:0;stroke-opacity:1"
           d="m 8.8867111,252.55 h 9.5619339 v 7.9375 H 8.8867111 Z"
           id="rect5414" />
      </g>
      <g
         transform="translate(0,26.987503)"
         id="g5422">
        <path
           style="opacity:1;fill:#f2e4a8;fill-opacity:1;fill-rule:evenodd;stroke:none;stroke-width:0.26499999;stroke-miterlimit:4;stroke-dasharray:none;stroke-dashoffset:0;stroke-opacity:1"
           d="M 4.8108513,252.55 H 15.58087 c 1.62874,0 2.939965,1.31123 2.939965,2.93997 v 2.05757 c 0,1.62874 -1.311225,2.93996 -2.939965,2.93996 H 4.8108513 c -1.6287404,0 -2.9399647,-1.31122 -2.9399647,-2.93996 v -2.05757 c 0,-1.62874 1.3112243,-2.93997 2.9399647,-2.93997 z"
           id="rect5418" />
        <path
           style="opacity:1;fill:#f2e4a8;fill-opacity:1;fill-rule:evenodd;stroke:none;stroke-width:0.26499999;stroke-miterlimit:4;stroke-dasharray:none;stroke-dashoffset:0;stroke-opacity:1"
           d="m 8.8867111,252.55 h 9.5619339 v 7.9375 H 8.8867111 Z"
           id="rect5420" />
      </g>
      <g
         id="g5428"
         transform="translate(0,35.983336)">
        <path
           style="opacity:1;fill:#f2e4a8;fill-opacity:1;fill-rule:evenodd;stroke:none;stroke-width:0.26499999;stroke-miterlimit:4;stroke-dasharray:none;stroke-dashoffset:0;stroke-opacity:1"
           d="M 4.8108513,252.55 H 15.58087 c 1.62874,0 2.939965,1.31123 2.939965,2.93997 v 2.05757 c 0,1.62874 -1.311225,2.93996 -2.939965,2.93996 H 4.8108513 c -1.6287404,0 -2.9399647,-1.31122 -2.9399647,-2.93996 v -2.05757 c 0,-1.62874 1.3112243,-2.93997 2.9399647,-2.93997 z"
           id="rect5424" />
        <path
           style="opacity:1;fill:#f2e4a8;fill-opacity:1;fill-rule:evenodd;stroke:none;stroke-width:0.26499999;stroke-miterlimit:4;stroke-dasharray:none;stroke-dashoffset:0;stroke-opacity:1"
           d="m 8.8867111,252.55 h 9.5619339 v 7.9375 H 8.8867111 Z"
           id="rect5426" />
      </g>
    </g>
    <g
       aria-label="1"
       transform="scale(0.90475082,1.1052767)"
       style="font-style:normal;font-variant:normal;font-weight:normal;font-stretch:normal;font-size:8.04115582px;line-height:1.25;font-family:'Times New Roman';-inkscape-font-specification:'Times New Roman, ';letter-spacing:0px;word-spacing:0px;fill:#000000;fill-opacity:1;stroke:none;stroke-width:0.26458332"
       id="text5378">
      <path
         d="m 5.4118389,234.38429 h 1.2328725 v -4.47996 l -1.3271048,0.29841 v -0.72245 l 1.3192521,-0.29055 h 0.7931218 v 5.19455 h 1.2171672 v 0.66748 H 5.4118389 Z"
         style="font-style:normal;font-variant:normal;font-weight:normal;font-stretch:normal;font-family:'DejaVu Sans Mono';-inkscape-font-specification:'DejaVu Sans Mono';fill:#000000;fill-opacity:1;stroke-width:0.26458332"
         id="path5459" />
    </g>
    <g
       aria-label="2"
       transform="scale(0.90475082,1.1052767)"
       style="font-style:normal;font-variant:normal;font-weight:normal;font-stretch:normal;font-size:8.04115582px;line-height:1.25;font-family:'Times New Roman';-inkscape-font-specification:'Times New Roman, ';letter-spacing:0px;word-spacing:0px;fill:#000000;fill-opacity:1;stroke:none;stroke-width:0.26458332"
       id="text5382">
      <path
         d="m 5.9639557,242.42455 h 2.6934731 v 0.66748 H 5.0962333 v -0.66748 q 0.7342266,-0.77349 1.283915,-1.36637 0.5496884,-0.59288 0.7577847,-0.83631 0.3926346,-0.47902 0.5300567,-0.77349 0.1374221,-0.29841 0.1374221,-0.60859 0,-0.49079 -0.2905496,-0.76956 -0.2866232,-0.27877 -0.7891955,-0.27877 -0.3572974,0 -0.749932,0.12957 -0.3926346,0.12957 -0.8323853,0.39263 v -0.80097 q 0.4044136,-0.19239 0.7931218,-0.29055 0.3926346,-0.0982 0.7734901,-0.0982 0.8598697,0 1.3820737,0.45938 0.5261303,0.45546 0.5261303,1.19754 0,0.37693 -0.1766856,0.75386 -0.1727592,0.37693 -0.5653937,0.83238 -0.2198754,0.25521 -0.6399944,0.70674 -0.4161926,0.45153 -1.2721359,1.35067 z"
         style="font-style:normal;font-variant:normal;font-weight:normal;font-stretch:normal;font-family:'DejaVu Sans Mono';-inkscape-font-specification:'DejaVu Sans Mono';fill:#000000;fill-opacity:1;stroke-width:0.26458332"
         id="path5456" />
    </g>
    <g
       aria-label="3"
       transform="scale(0.90475082,1.1052767)"
       style="font-style:normal;font-variant:normal;font-weight:normal;font-stretch:normal;font-size:8.04115582px;line-height:1.25;font-family:'Times New Roman';-inkscape-font-specification:'Times New Roman, ';letter-spacing:0px;word-spacing:0px;fill:#000000;fill-opacity:1;stroke:none;stroke-width:0.26458332"
       id="text5386">
      <path
         d="m 7.4724214,248.17649 q 0.5771728,0.15313 0.8834277,0.54577 0.306255,0.3887 0.306255,0.97373 0,0.80883 -0.5457621,1.27214 -0.5418357,0.45938 -1.5037903,0.45938 -0.4044136,0 -0.8245326,-0.0746 -0.420119,-0.0746 -0.8245326,-0.21595 v -0.7892 q 0.4004873,0.2081 0.7891955,0.31018 0.3887082,0.10209 0.7734901,0.10209 0.6517733,0 1.0012181,-0.29448 0.3494448,-0.29447 0.3494448,-0.84809 0,-0.51042 -0.3494448,-0.80882 -0.3494448,-0.30233 -0.9462493,-0.30233 H 5.9764837 v -0.65178 h 0.6046572 q 0.545762,0 0.852017,-0.2395 0.306255,-0.23951 0.306255,-0.66748 0,-0.45153 -0.2866233,-0.69104 -0.2826969,-0.24343 -0.8088272,-0.24343 -0.3494447,0 -0.7224476,0.0785 -0.3730028,0.0785 -0.7813427,0.23559 v -0.7303 q 0.4750878,-0.12565 0.8441643,-0.18847 0.3730028,-0.0628 0.659626,-0.0628 0.8559434,0 1.3663683,0.4319 0.5143513,0.42797 0.5143513,1.13864 0,0.48294 -0.2709179,0.8049 -0.2669915,0.32196 -0.7813427,0.45545 z"
         style="font-style:normal;font-variant:normal;font-weight:normal;font-stretch:normal;font-family:'DejaVu Sans Mono';-inkscape-font-specification:'DejaVu Sans Mono';fill:#000000;fill-opacity:1;stroke-width:0.26458332"
         id="path5453" />
    </g>
    <g
       aria-label="4"
       transform="scale(0.90475082,1.1052767)"
       style="font-style:normal;font-variant:normal;font-weight:normal;font-stretch:normal;font-size:8.04115582px;line-height:1.25;font-family:'Times New Roman';-inkscape-font-specification:'Times New Roman, ';letter-spacing:0px;word-spacing:0px;fill:#000000;fill-opacity:1;stroke:none;stroke-width:0.26458332"
       id="text5390">
      <path
         d="M 7.4591444,254.45612 5.6098356,257.554 H 7.4591444 Z M 7.329575,253.73367 h 0.9187648 v 3.82033 h 0.7813428 v 0.64392 H 8.2483398 v 1.39778 H 7.4591444 v -1.39778 H 4.9737676 v -0.74993 z"
         style="font-style:normal;font-variant:normal;font-weight:normal;font-stretch:normal;font-family:'DejaVu Sans Mono';-inkscape-font-specification:'DejaVu Sans Mono';fill:#000000;fill-opacity:1;stroke-width:0.26458332"
         id="path5450" />
    </g>
    <g
       aria-label="5"
       transform="scale(0.90475082,1.1052767)"
       style="font-style:normal;font-variant:normal;font-weight:normal;font-stretch:normal;font-size:8.04115582px;line-height:1.25;font-family:'Times New Roman';-inkscape-font-specification:'Times New Roman, ';letter-spacing:0px;word-spacing:0px;fill:#000000;fill-opacity:1;stroke:none;stroke-width:0.26458332"
       id="text5394">
      <path
         d="m 5.5337375,261.77392 h 2.9683173 v 0.66748 H 6.2561851 v 1.44097 q 0.1688329,-0.0628 0.3376657,-0.0903 0.1727592,-0.0314 0.3455185,-0.0314 0.9109121,0 1.4448951,0.53791 0.533983,0.53791 0.533983,1.45668 0,0.92661 -0.5614674,1.4606 -0.5575411,0.53398 -1.5273484,0.53398 -0.4672352,0 -0.8559434,-0.0628 -0.3847818,-0.0628 -0.6910368,-0.18847 v -0.8049 q 0.3612238,0.19632 0.7263739,0.29448 0.3651502,0.0942 0.7460057,0.0942 0.6556997,0 1.0090708,-0.34552 0.3572975,-0.34552 0.3572975,-0.98158 0,-0.62822 -0.3690765,-0.97766 -0.3651501,-0.34945 -1.0208499,-0.34945 -0.318034,0 -0.6203626,0.0746 -0.3023286,0.0707 -0.5771728,0.21595 z"
         style="font-style:normal;font-variant:normal;font-weight:normal;font-stretch:normal;font-family:'DejaVu Sans Mono';-inkscape-font-specification:'DejaVu Sans Mono';fill:#000000;fill-opacity:1;stroke-width:0.26458332"
         id="path5447" />
    </g>
    <rect
       style="opacity:1;fill:#d2c37f;fill-opacity:1;fill-rule:evenodd;stroke:none;stroke-width:0.26499999;stroke-miterlimit:4;stroke-dasharray:none;stroke-dashoffset:0;stroke-opacity:1"
       id="rect5372"
       width="0.45697698"
       height="43.920818"
       x="18.04405"
       y="252.55" />
  </g>
</svg>
