<?xml version="1.0" encoding="UTF-8" standalone="no"?>
<!-- Created with Inkscape (http://www.inkscape.org/) -->

<svg
   xmlns:dc="http://purl.org/dc/elements/1.1/"
   xmlns:cc="http://creativecommons.org/ns#"
   xmlns:rdf="http://www.w3.org/1999/02/22-rdf-syntax-ns#"
   xmlns:svg="http://www.w3.org/2000/svg"
   xmlns="http://www.w3.org/2000/svg"
   xmlns:sodipodi="http://sodipodi.sourceforge.net/DTD/sodipodi-0.dtd"
   xmlns:inkscape="http://www.inkscape.org/namespaces/inkscape"
   width="40"
   height="30"
   viewBox="0 0 10.583333 7.9375003"
   version="1.1"
   id="svg8"
   inkscape:version="0.92.3 (2405546, 2018-03-11)"
   sodipodi:docname="Spin.svg">
  <defs
     id="defs2" />
  <sodipodi:namedview
     id="base"
     pagecolor="#ffffff"
     bordercolor="#666666"
     borderopacity="1.0"
     inkscape:pageopacity="0.0"
     inkscape:pageshadow="2"
     inkscape:zoom="15.839192"
     inkscape:cx="17.973823"
     inkscape:cy="3.9860739"
     inkscape:document-units="mm"
     inkscape:current-layer="layer1"
     showgrid="false"
     units="px"
     inkscape:window-width="1536"
     inkscape:window-height="811"
     inkscape:window-x="-8"
     inkscape:window-y="-8"
     inkscape:window-maximized="1" />
  <metadata
     id="metadata5">
    <rdf:RDF>
      <cc:Work
         rdf:about="">
        <dc:format>image/svg+xml</dc:format>
        <dc:type
           rdf:resource="http://purl.org/dc/dcmitype/StillImage" />
        <dc:title></dc:title>
      </cc:Work>
    </rdf:RDF>
  </metadata>
  <g
     inkscape:label="Layer 1"
     inkscape:groupmode="layer"
     id="layer1"
     transform="translate(0,-289.06248)">
    <rect
       style="opacity:1;fill:#f0d977;fill-opacity:1;fill-rule:evenodd;stroke:none;stroke-width:0.26458332;stroke-miterlimit:4;stroke-dasharray:0.26458332, 0.79374996;stroke-dashoffset:0;stroke-opacity:1"
       id="rect2525"
       width="10.583333"
       height="7.9375005"
       x="0"
       y="289.0625"
       ry="0.70158249" />
    <path
       style="opacity:1;fill:#ffec98;fill-opacity:1;fill-rule:evenodd;stroke:none;stroke-width:0.26458329;stroke-miterlimit:4;stroke-dasharray:0.26458331, 0.79374993;stroke-dashoffset:0;stroke-opacity:1"
       d="m 1.4646491,289.53494 c 2.4594351,0.29935 5.1053337,0.0393 7.677658,0 0.5757748,-0.009 1.1344699,0.47149 1.0394259,1.03943 -0.2767365,1.65365 -0.007,3.3073 0,4.96095 0.0024,0.57584 -0.4658182,1.09011 -1.0394259,1.03943 -2.9009482,-0.2563 -5.2629176,-0.10836 -7.677658,0 -0.57526306,0.0258 -1.0764379,-0.46477 -1.0394259,-1.03943 0.10650641,-1.65365 0.20196836,-3.3073 0,-4.96095 -0.0698114,-0.57159 0.46780261,-1.10901 1.0394259,-1.03943 z"
       id="rect2527"
       inkscape:connector-curvature="0"
       sodipodi:nodetypes="sssssssss" />
    <path
       style="opacity:1;fill:#d3b848;fill-opacity:1;fill-rule:evenodd;stroke:none;stroke-width:0.26458332;stroke-miterlimit:4;stroke-dasharray:0.26458331, 0.79374994;stroke-dashoffset:0;stroke-opacity:1"
       d="m 5.7281462,292.39272 c -0.2626099,-0.42895 -1.4692793,-0.73987 -1.8169056,-0.29546 -0.3117023,0.39849 -0.1688981,1.7585 0.4270109,2.17264 0.7675667,0.53342 1.3213642,0.52487 1.9800554,-0.008 l 0.9095478,0.41329 c -1.9391985,1.75763 -2.9773009,1.1181 -4.1380875,-0.0972 -0.8004315,-0.83803 -0.4444687,-3.41157 0.6907461,-3.71631 1.126756,-0.30247 2.328742,-0.0872 2.8154233,1.07358 l 1.3202336,-0.70331 c -0.331339,0.99379 -0.5744894,1.98234 -0.6255021,2.95948 -0.8657428,-0.44821 -2.1042678,-0.96742 -2.6065108,-1.06122 z"
       id="path2530"
       inkscape:connector-curvature="0"
       sodipodi:nodetypes="cssccssccccc" />
  </g>
</svg>
