<?xml version="1.0" encoding="UTF-8" standalone="no"?>
<!-- Created with Inkscape (http://www.inkscape.org/) -->

<svg
   xmlns:dc="http://purl.org/dc/elements/1.1/"
   xmlns:cc="http://creativecommons.org/ns#"
   xmlns:rdf="http://www.w3.org/1999/02/22-rdf-syntax-ns#"
   xmlns:svg="http://www.w3.org/2000/svg"
   xmlns="http://www.w3.org/2000/svg"
   xmlns:sodipodi="http://sodipodi.sourceforge.net/DTD/sodipodi-0.dtd"
   xmlns:inkscape="http://www.inkscape.org/namespaces/inkscape"
   width="60"
   height="30"
   viewBox="0 0 15.874999 7.9375003"
   version="1.1"
   id="svg8"
   inkscape:version="0.92.3 (2405546, 2018-03-11)"
   sodipodi:docname="Step.svg">
  <defs
     id="defs2" />
  <sodipodi:namedview
     id="base"
     pagecolor="#ffffff"
     bordercolor="#666666"
     borderopacity="1.0"
     inkscape:pageopacity="0.0"
     inkscape:pageshadow="2"
     inkscape:zoom="7.9195959"
     inkscape:cx="29.667891"
     inkscape:cy="15.509724"
     inkscape:document-units="mm"
     inkscape:current-layer="layer1"
     showgrid="false"
     units="px"
     inkscape:window-width="1536"
     inkscape:window-height="811"
     inkscape:window-x="-8"
     inkscape:window-y="-8"
     inkscape:window-maximized="1" />
  <metadata
     id="metadata5">
    <rdf:RDF>
      <cc:Work
         rdf:about="">
        <dc:format>image/svg+xml</dc:format>
        <dc:type
           rdf:resource="http://purl.org/dc/dcmitype/StillImage" />
        <dc:title />
      </cc:Work>
    </rdf:RDF>
  </metadata>
  <g
     inkscape:label="Layer 1"
     inkscape:groupmode="layer"
     id="layer1"
     transform="translate(0,-289.06248)">
    <path
       style="opacity:1;fill:#f0d977;fill-opacity:1;fill-rule:evenodd;stroke:none;stroke-width:0.26458332;stroke-miterlimit:4;stroke-dasharray:0.26458332, 0.79374994;stroke-dashoffset:0;stroke-opacity:1"
       d="m 0.70158243,289.0625 c 5.21119757,0.17272 9.62099157,0.002 14.42458757,0 0.388676,-1.6e-4 0.74497,0.31534 0.701582,0.70158 -0.244674,2.17811 -0.04021,4.35623 0,6.53434 0.0072,0.3886 -0.312921,0.70495 -0.701582,0.70158 C 9.9598423,296.95523 4.0044006,296.81183 0.70158243,297 0.31353504,297.02211 -0.03345467,296.68565 0,296.29842 c 0.18498262,-2.14112 0.1277442,-4.33068 0,-6.53434 -0.02249307,-0.38802 0.31311906,-0.71445 0.70158243,-0.70158 z"
       id="rect2525"
       inkscape:connector-curvature="0"
       sodipodi:nodetypes="sssssssss" />
    <path
       style="opacity:1;fill:#ffec98;fill-opacity:1;fill-rule:evenodd;stroke:none;stroke-width:0.26458329;stroke-miterlimit:4;stroke-dasharray:0.26458332, 0.79374995;stroke-dashoffset:0;stroke-opacity:1"
       d="m 1.5853175,289.51132 c 3.743521,0.29935 8.5740585,0.0629 12.4894095,0.0236 0.87639,-0.009 1.348806,0.47149 1.204139,1.03943 -0.421222,1.65365 -0.01065,3.3073 0,4.96095 0.0036,0.57584 -0.331048,1.09011 -1.204139,1.03943 -4.4155513,-0.2563 -8.7902951,-0.17923 -12.465786,-0.0709 -0.8756113,0.0258 -1.23685289,-0.3939 -1.1805167,-0.96856 0.16211404,-1.65365 0.30741726,-3.3073 0,-4.96095 -0.10626035,-0.57159 0.28682188,-1.13263 1.1568932,-1.06305 z"
       id="rect2527"
       inkscape:connector-curvature="0"
       sodipodi:nodetypes="sssssssss" />
    <g
       aria-label="Step"
       style="font-style:normal;font-variant:normal;font-weight:normal;font-stretch:normal;font-size:5.54035091px;line-height:1.25;font-family:'Times New Roman';-inkscape-font-specification:'Times New Roman, ';letter-spacing:0px;word-spacing:0px;fill:#d3b848;fill-opacity:1;stroke:none;stroke-width:0.26458332"
       id="text5492">
      <path
         d="m 4.5448363,293.31465 q 0,0.37062 -0.129852,0.64926 -0.1271467,0.27594 -0.3516824,0.45989 -0.2218305,0.18396 -0.5221132,0.27594 -0.2975774,0.092 -0.6411441,0.092 -0.1325572,0 -0.2921669,-0.0352 -0.1569045,-0.0352 -0.3192195,-0.0866 -0.1623149,-0.0541 -0.3138089,-0.11362 -0.1487887,-0.0622 -0.2651144,-0.11632 l 0.1190309,-1.11457 q 0.2299462,0.13797 0.5085869,0.21101 0.281346,0.0703 0.5518709,0.0703 0.0514,0 0.1244415,-0.003 0.073042,-0.005 0.1379677,-0.0243 0.067631,-0.0217 0.1136205,-0.0622 0.045989,-0.0406 0.045989,-0.11633 0,-0.0514 -0.032463,-0.0866 -0.032463,-0.0379 -0.083863,-0.0595 -0.0514,-0.0243 -0.1163257,-0.0352 -0.064926,-0.0135 -0.1271467,-0.0189 -0.062221,-0.005 -0.1163258,-0.005 -0.054105,0 -0.086568,0 -0.2326515,0 -0.4247242,-0.0812 -0.1893675,-0.0812 -0.3273352,-0.22453 -0.1352625,-0.14609 -0.2110095,-0.34357 -0.075747,-0.20019 -0.075747,-0.43284 0,-0.31922 0.1271467,-0.57081 0.129852,-0.25429 0.3435667,-0.43013 0.2164199,-0.17855 0.4950606,-0.27323 0.2786407,-0.0947 0.5762182,-0.0947 0.1325572,0 0.2732301,0.0108 0.140673,0.008 0.2786407,0.0325 0.140673,0.0243 0.2732302,0.0622 0.1325573,0.0379 0.2515882,0.0947 l -0.1027994,1.09834 q -0.183957,-0.0622 -0.3868507,-0.1028 -0.2001885,-0.0433 -0.3922612,-0.0433 -0.035168,0 -0.091979,0.003 -0.054105,0 -0.1163257,0.008 -0.059515,0.005 -0.1217362,0.0189 -0.062221,0.0135 -0.1109152,0.0379 -0.048694,0.0217 -0.078452,0.0595 -0.029758,0.0379 -0.027052,0.0893 0.00271,0.0595 0.043284,0.0974 0.043284,0.0352 0.10821,0.0568 0.067631,0.0189 0.1460835,0.0271 0.081157,0.008 0.1596097,0.0108 0.078452,0 0.1460835,0 0.067631,-0.003 0.1109152,0.003 0.2164199,0.0135 0.3895559,0.092 0.173136,0.0784 0.2921669,0.2083 0.1217363,0.12985 0.183957,0.31111 0.064926,0.17854 0.064926,0.39496 z"
         style="font-style:normal;font-variant:normal;font-weight:normal;font-stretch:normal;font-family:'Luckiest Guy';-inkscape-font-specification:'Luckiest Guy';fill:#d3b848;fill-opacity:1;stroke-width:0.26458332"
         id="path5494" />
      <path
         d="m 7.5179056,290.93944 -0.027052,1.14703 -0.8061644,0.0325 -0.097389,2.51047 -1.1416153,0.0595 -0.1027995,-2.51047 -0.8061643,0.0433 0.032463,-1.27688 z"
         style="font-style:normal;font-variant:normal;font-weight:normal;font-stretch:normal;font-family:'Luckiest Guy';-inkscape-font-specification:'Luckiest Guy';fill:#d3b848;fill-opacity:1;stroke-width:0.26458332"
         id="path5496" />
      <path
         d="m 10.637058,292.568 q 0,0.23536 -0.03246,0.47072 -0.462597,0.0297 -0.9197846,0.0974 -0.4571872,0.0649 -0.9143743,0.12985 0.070336,0.19478 0.2191252,0.3111 0.151494,0.11633 0.3597982,0.11633 0.1082099,0 0.2353567,-0.0406 0.1298519,-0.0406 0.2569987,-0.1001 0.1271467,-0.0622 0.2434721,-0.13255 0.116326,-0.0703 0.200189,-0.12715 l -0.129852,1.22818 q -0.105505,0.0812 -0.2299464,0.13797 -0.1217362,0.0568 -0.2542934,0.092 -0.1325573,0.0352 -0.2678197,0.0514 -0.1352625,0.0162 -0.2651145,0.0162 -0.2678197,0 -0.4896501,-0.073 -0.2218305,-0.073 -0.4030822,-0.20289 -0.1785465,-0.13256 -0.313809,-0.31111 -0.1352624,-0.17854 -0.2245357,-0.38955 -0.089273,-0.21101 -0.1352624,-0.44637 -0.045989,-0.23536 -0.045989,-0.47612 0,-0.25159 0.045989,-0.50318 0.045989,-0.25159 0.1379677,-0.48424 0.094684,-0.23265 0.2353567,-0.43013 0.1433782,-0.20019 0.3327457,-0.34898 0.1893674,-0.14879 0.4274294,-0.23265 0.2407672,-0.0839 0.5302289,-0.0839 0.2407672,0 0.4382504,0.0676 0.2001885,0.0649 0.3543876,0.18395 0.156905,0.11633 0.270525,0.27864 0.116326,0.16232 0.189367,0.3571 0.07575,0.19207 0.110916,0.40849 0.03787,0.21371 0.03787,0.43554 z m -1.0820996,-0.14067 q 0,-0.0757 -0.016231,-0.1542 -0.016231,-0.0812 -0.054105,-0.14608 -0.035168,-0.0649 -0.094684,-0.10551 -0.059515,-0.0433 -0.1487887,-0.0433 -0.10821,0 -0.1920727,0.0595 -0.081157,0.0568 -0.140673,0.14609 -0.059515,0.0866 -0.097389,0.18937 -0.037873,0.1028 -0.05681,0.18936 l 0.8007538,-0.0757 z"
         style="font-style:normal;font-variant:normal;font-weight:normal;font-stretch:normal;font-family:'Luckiest Guy';-inkscape-font-specification:'Luckiest Guy';fill:#d3b848;fill-opacity:1;stroke-width:0.26458332"
         id="path5498" />
      <path
         d="m 13.96181,292.25961 q 0,0.2624 -0.07845,0.4653 -0.07845,0.20289 -0.21642,0.35709 -0.135262,0.1515 -0.319219,0.257 -0.183957,0.1028 -0.394967,0.17043 -0.208304,0.0649 -0.43284,0.0974 -0.224535,0.0298 -0.440955,0.0325 v 1.15244 H 10.81831 q 0,-0.3084 0,-0.60057 0.0027,-0.29216 0.0027,-0.57892 0.0027,-0.28946 0.0027,-0.58163 0.0027,-0.29217 0.0054,-0.60327 0.0054,-0.33004 0.0027,-0.66008 -0.0027,-0.33004 0.01353,-0.66549 0.346272,-0.1028 0.692544,-0.1542 0.346272,-0.0514 0.714186,-0.0514 0.208304,0 0.416608,0.0352 0.208304,0.0325 0.397672,0.1055 0.192073,0.073 0.354387,0.18396 0.165021,0.10821 0.284052,0.2597 0.119031,0.1515 0.186662,0.34628 0.07034,0.19477 0.07034,0.43284 z m -1.20113,0.092 q 0,-0.17584 -0.10821,-0.27323 -0.105505,-0.10009 -0.275936,-0.10009 -0.05681,0 -0.119031,0.0108 -0.05951,0.008 -0.11362,0.0216 l -0.03246,0.78994 q 0.03787,0.005 0.07304,0.005 0.03517,0 0.07304,0 0.09739,0 0.186662,-0.0325 0.09198,-0.0325 0.162315,-0.092 0.07034,-0.0622 0.110916,-0.14337 0.04328,-0.0839 0.04328,-0.18667 z"
         style="font-style:normal;font-variant:normal;font-weight:normal;font-stretch:normal;font-family:'Luckiest Guy';-inkscape-font-specification:'Luckiest Guy';fill:#d3b848;fill-opacity:1;stroke-width:0.26458332"
         id="path5500" />
    </g>
  </g>
</svg>
