<?xml version="1.0" encoding="UTF-8" standalone="no"?>
<!-- Created with Inkscape (http://www.inkscape.org/) -->

<svg
   xmlns:dc="http://purl.org/dc/elements/1.1/"
   xmlns:cc="http://creativecommons.org/ns#"
   xmlns:rdf="http://www.w3.org/1999/02/22-rdf-syntax-ns#"
   xmlns:svg="http://www.w3.org/2000/svg"
   xmlns="http://www.w3.org/2000/svg"
   xmlns:sodipodi="http://sodipodi.sourceforge.net/DTD/sodipodi-0.dtd"
   xmlns:inkscape="http://www.inkscape.org/namespaces/inkscape"
   width="60"
   height="30"
   viewBox="0 0 15.874999 7.9375003"
   version="1.1"
   id="svg8"
   inkscape:version="0.92.3 (2405546, 2018-03-11)"
   sodipodi:docname="Stop.svg">
  <defs
     id="defs2" />
  <sodipodi:namedview
     id="base"
     pagecolor="#ffffff"
     bordercolor="#666666"
     borderopacity="1.0"
     inkscape:pageopacity="0.0"
     inkscape:pageshadow="2"
     inkscape:zoom="5.6"
     inkscape:cx="20.481438"
     inkscape:cy="24.815948"
     inkscape:document-units="mm"
     inkscape:current-layer="layer1"
     showgrid="false"
     units="px"
     inkscape:window-width="1536"
     inkscape:window-height="811"
     inkscape:window-x="-8"
     inkscape:window-y="-8"
     inkscape:window-maximized="1" />
  <metadata
     id="metadata5">
    <rdf:RDF>
      <cc:Work
         rdf:about="">
        <dc:format>image/svg+xml</dc:format>
        <dc:type
           rdf:resource="http://purl.org/dc/dcmitype/StillImage" />
        <dc:title></dc:title>
      </cc:Work>
    </rdf:RDF>
  </metadata>
  <g
     inkscape:label="Layer 1"
     inkscape:groupmode="layer"
     id="layer1"
     transform="translate(0,-289.06248)">
    <path
       style="opacity:1;fill:#f0d977;fill-opacity:1;fill-rule:evenodd;stroke:none;stroke-width:0.26458332;stroke-miterlimit:4;stroke-dasharray:0.26458332, 0.79374994;stroke-dashoffset:0;stroke-opacity:1"
       d="m 0.70158243,289.0625 c 5.21119757,0.17272 9.62099157,0.002 14.42458757,0 0.388676,-1.6e-4 0.74497,0.31534 0.701582,0.70158 -0.244674,2.17811 -0.04021,4.35623 0,6.53434 0.0072,0.3886 -0.312921,0.70495 -0.701582,0.70158 C 9.9598423,296.95523 4.0044006,296.81183 0.70158243,297 0.31353504,297.02211 -0.03345467,296.68565 0,296.29842 c 0.18498262,-2.14112 0.1277442,-4.33068 0,-6.53434 -0.02249307,-0.38802 0.31311906,-0.71445 0.70158243,-0.70158 z"
       id="rect2525"
       inkscape:connector-curvature="0"
       sodipodi:nodetypes="sssssssss" />
    <path
       style="opacity:1;fill:#ffec98;fill-opacity:1;fill-rule:evenodd;stroke:none;stroke-width:0.26458329;stroke-miterlimit:4;stroke-dasharray:0.26458332, 0.79374995;stroke-dashoffset:0;stroke-opacity:1"
       d="m 1.5853175,289.51132 c 3.743521,0.29935 8.5740585,0.0629 12.4894095,0.0236 0.87639,-0.009 1.348806,0.47149 1.204139,1.03943 -0.421222,1.65365 -0.01065,3.3073 0,4.96095 0.0036,0.57584 -0.331048,1.09011 -1.204139,1.03943 -4.4155513,-0.2563 -8.7902951,-0.17923 -12.465786,-0.0709 -0.8756113,0.0258 -1.23685289,-0.3939 -1.1805167,-0.96856 0.16211404,-1.65365 0.30741726,-3.3073 0,-4.96095 -0.10626035,-0.57159 0.28682188,-1.13263 1.1568932,-1.06305 z"
       id="rect2527"
       inkscape:connector-curvature="0"
       sodipodi:nodetypes="sssssssss" />
    <path
       style="opacity:1;fill:#d3b848;fill-opacity:1;fill-rule:evenodd;stroke:none;stroke-width:0.26458332;stroke-miterlimit:4;stroke-dasharray:0.26458331, 0.79374994;stroke-dashoffset:0;stroke-opacity:1"
       d="m 5.2204584,290.61475 c 1.4246167,-0.1033 2.8504241,-0.20462 4.459618,-3e-4 -0.2596693,1.55502 0.014125,3.11004 0.035783,4.66506 -1.3740053,0.26631 -2.9639286,0.1008 -4.5182796,0.006 0.2334116,-1.5119 0.086789,-3.09981 0.022878,-4.67118 z"
       id="path5476"
       inkscape:connector-curvature="0"
       sodipodi:nodetypes="ccccc" />
  </g>
</svg>
