<?xml version="1.0" encoding="UTF-8" standalone="no"?>
<!-- Created with Inkscape (http://www.inkscape.org/) -->

<svg
   xmlns:dc="http://purl.org/dc/elements/1.1/"
   xmlns:cc="http://creativecommons.org/ns#"
   xmlns:rdf="http://www.w3.org/1999/02/22-rdf-syntax-ns#"
   xmlns:svg="http://www.w3.org/2000/svg"
   xmlns="http://www.w3.org/2000/svg"
   xmlns:sodipodi="http://sodipodi.sourceforge.net/DTD/sodipodi-0.dtd"
   xmlns:inkscape="http://www.inkscape.org/namespaces/inkscape"
   width="64"
   height="64"
   viewBox="0 0 16.933333 16.933333"
   version="1.1"
   id="svg821"
   inkscape:version="0.92.3 (2405546, 2018-03-11)"
   sodipodi:docname="Num2.svg">
  <defs
     id="defs815" />
  <sodipodi:namedview
     id="base"
     pagecolor="#ffffff"
     bordercolor="#666666"
     borderopacity="1.0"
     inkscape:pageopacity="0.0"
     inkscape:pageshadow="2"
     inkscape:zoom="15.839192"
     inkscape:cx="23.237275"
     inkscape:cy="31.842546"
     inkscape:document-units="px"
     inkscape:current-layer="layer1"
     showgrid="false"
     units="px"
     inkscape:window-width="1536"
     inkscape:window-height="811"
     inkscape:window-x="-8"
     inkscape:window-y="-8"
     inkscape:window-maximized="1" />
  <metadata
     id="metadata818">
    <rdf:RDF>
      <cc:Work
         rdf:about="">
        <dc:format>image/svg+xml</dc:format>
        <dc:type
           rdf:resource="http://purl.org/dc/dcmitype/StillImage" />
        <dc:title />
      </cc:Work>
    </rdf:RDF>
  </metadata>
  <g
     inkscape:label="Layer 1"
     inkscape:groupmode="layer"
     id="layer1"
     transform="translate(0,-280.06667)">
    <path
       style="opacity:1;fill:#b3b3b3;fill-opacity:1;fill-rule:evenodd;stroke:none;stroke-width:1.05833328;stroke-miterlimit:4;stroke-dasharray:none;stroke-dashoffset:0;stroke-opacity:1"
       d="m 6.9927102,284.83302 c 1.2790611,0.0167 2.3344505,0.0711 3.4150628,0 0.476589,-0.0314 0.909146,0.5487 0.859494,1.22202 -0.121907,1.65316 -0.147688,3.27899 0,4.85549 0.06287,0.67107 -0.381542,1.23377 -0.859494,1.22201 -1.0020013,-0.0247 -2.1181884,0.0215 -3.4150628,0 -0.4775396,-0.008 -0.8855162,-0.54602 -0.8594955,-1.22201 0.061552,-1.59905 0.1702483,-3.18321 0,-4.85549 -0.068212,-0.67003 0.3785219,-1.2283 0.8594955,-1.22202 z"
       id="rect1366"
       inkscape:connector-curvature="0"
       sodipodi:nodetypes="sssssssss" />
    <g
       aria-label="2"
       style="font-style:normal;font-variant:normal;font-weight:normal;font-stretch:normal;font-size:10.58333302px;line-height:1.25;font-family:'Times New Roman';-inkscape-font-specification:'Times New Roman, ';letter-spacing:0px;word-spacing:0px;fill:#454545;fill-opacity:1;stroke:none;stroke-width:0.26458332"
       id="text1370">
      <path
         d="m 10.495589,287.81493 q 0,0.30317 -0.109898,0.57981 -0.109899,0.27285 -0.2918,0.51538 -0.1781111,0.23875 -0.409277,0.44339 -0.2273763,0.20085 -0.4623318,0.3638 h 1.1975148 l -0.09095,1.57647 -3.5470703,-0.12126 v -1.37942 q 0.2008491,-0.0682 0.4206461,-0.16295 0.2235867,-0.0985 0.4358046,-0.22359 0.2160075,-0.12506 0.4054877,-0.28043 0.1932699,-0.15537 0.3372749,-0.33727 0.1477945,-0.18569 0.2311659,-0.4017 0.087161,-0.21601 0.087161,-0.46612 0,-0.14401 -0.053055,-0.25391 -0.049265,-0.1099 -0.1402154,-0.1819 -0.09095,-0.0758 -0.2122179,-0.1099 -0.1174777,-0.0379 -0.2539035,-0.0379 -0.1136881,0 -0.2311659,0.0265 -0.1174777,0.0227 -0.2311659,0.0682 -0.1136881,0.0455 -0.2160075,0.11369 -0.09853,0.0644 -0.1781114,0.14779 l -0.3334852,-1.48553 q 0.1402154,-0.14021 0.3221164,-0.23495 0.181901,-0.0947 0.3827501,-0.15158 0.2008491,-0.0606 0.4092773,-0.0872 0.2084283,-0.0265 0.4092773,-0.0265 0.4471734,0 0.8337131,0.16295 0.3865397,0.15916 0.6707601,0.44338 0.2880101,0.28043 0.4509631,0.66697 0.166742,0.38654 0.166742,0.83372 z"
         style="font-style:normal;font-variant:normal;font-weight:normal;font-stretch:normal;font-size:7.76111078px;font-family:'Luckiest Guy';-inkscape-font-specification:'Luckiest Guy';fill:#454545;fill-opacity:1;stroke-width:0.26458332"
         id="path1936" />
    </g>
  </g>
</svg>
