<?xml version="1.0" encoding="UTF-8" standalone="no"?>
<!-- Created with Inkscape (http://www.inkscape.org/) -->

<svg
   xmlns:dc="http://purl.org/dc/elements/1.1/"
   xmlns:cc="http://creativecommons.org/ns#"
   xmlns:rdf="http://www.w3.org/1999/02/22-rdf-syntax-ns#"
   xmlns:svg="http://www.w3.org/2000/svg"
   xmlns="http://www.w3.org/2000/svg"
   xmlns:sodipodi="http://sodipodi.sourceforge.net/DTD/sodipodi-0.dtd"
   xmlns:inkscape="http://www.inkscape.org/namespaces/inkscape"
   width="64"
   height="64"
   viewBox="0 0 16.933333 16.933333"
   version="1.1"
   id="svg821"
   inkscape:version="0.92.3 (2405546, 2018-03-11)"
   sodipodi:docname="Num3.svg">
  <defs
     id="defs815" />
  <sodipodi:namedview
     id="base"
     pagecolor="#ffffff"
     bordercolor="#666666"
     borderopacity="1.0"
     inkscape:pageopacity="0.0"
     inkscape:pageshadow="2"
     inkscape:zoom="7.9195959"
     inkscape:cx="16.766808"
     inkscape:cy="30.823813"
     inkscape:document-units="px"
     inkscape:current-layer="layer1"
     showgrid="false"
     units="px"
     inkscape:window-width="1536"
     inkscape:window-height="811"
     inkscape:window-x="-8"
     inkscape:window-y="-8"
     inkscape:window-maximized="1" />
  <metadata
     id="metadata818">
    <rdf:RDF>
      <cc:Work
         rdf:about="">
        <dc:format>image/svg+xml</dc:format>
        <dc:type
           rdf:resource="http://purl.org/dc/dcmitype/StillImage" />
        <dc:title />
      </cc:Work>
    </rdf:RDF>
  </metadata>
  <g
     inkscape:label="Layer 1"
     inkscape:groupmode="layer"
     id="layer1"
     transform="translate(0,-280.06667)">
    <path
       style="opacity:1;fill:#b3b3b3;fill-opacity:1;fill-rule:evenodd;stroke:none;stroke-width:1.05833328;stroke-miterlimit:4;stroke-dasharray:none;stroke-dashoffset:0;stroke-opacity:1"
       d="m 5.6507438,284.29999 c 2.0535809,0.29383 3.8382279,0.13944 5.6318452,0 0.782883,-0.0609 1.499291,0.63644 1.41741,1.41741 -0.20104,1.91749 -0.243555,3.80327 0,5.63184 0.103675,0.77838 -0.635306,1.48757 -1.41741,1.41741 -1.7432432,-0.15638 -3.621333,-0.15544 -5.6318452,0 -0.7829092,0.0605 -1.4603219,-0.63333 -1.4174107,-1.41741 0.1015059,-1.85472 0.2807598,-3.69217 0,-5.63184 -0.1124896,-0.77715 0.6400819,-1.52863 1.4174107,-1.41741 z"
       id="rect1366"
       inkscape:connector-curvature="0"
       sodipodi:nodetypes="sssssssss" />
    <g
       aria-label="3"
       style="font-style:normal;font-variant:normal;font-weight:normal;font-stretch:normal;font-size:10.58333302px;line-height:1.25;font-family:'Times New Roman';-inkscape-font-specification:'Times New Roman, ';letter-spacing:0px;word-spacing:0px;fill:#454545;fill-opacity:1;stroke:none;stroke-width:0.26458332"
       id="text1370">
      <path
         d="m 10.572777,289.44136 q 0,0.50401 -0.162953,0.8754 -0.159163,0.36759 -0.4471732,0.61391 -0.28801,0.24254 -0.6897081,0.3638 -0.3979085,0.11748 -0.8753987,0.11748 -0.2160075,0 -0.4433838,-0.0417 -0.2273763,-0.0417 -0.450963,-0.11369 -0.2235867,-0.072 -0.4358045,-0.17053 -0.2084283,-0.0985 -0.3903293,-0.21222 l 0.144005,-1.52342 q 0.1440049,0.0985 0.3221164,0.18948 0.1781114,0.0872 0.3675916,0.15916 0.1932699,0.0682 0.3865397,0.1099 0.1970595,0.0417 0.3789605,0.0417 0.106109,0 0.2160075,-0.0152 0.1136881,-0.019 0.2046387,-0.0644 0.09095,-0.0455 0.1477946,-0.12884 0.060634,-0.0834 0.060634,-0.21601 0,-0.0834 -0.075792,-0.15537 -0.075792,-0.072 -0.181901,-0.12127 -0.1061089,-0.0531 -0.2197971,-0.0796 -0.1136881,-0.0303 -0.1894802,-0.0303 -0.053055,0 -0.1288466,0.008 -0.072002,0.004 -0.1477946,0.0152 -0.075792,0.0114 -0.1477946,0.0341 -0.068213,0.019 -0.1061089,0.0493 l 0.022738,-1.08383 q 0.064423,0.008 0.1212674,0.0114 0.056844,0.004 0.1212673,0.004 0.1326362,0 0.28801,-0.0227 0.1553738,-0.0265 0.28801,-0.0872 0.1326361,-0.0644 0.2197971,-0.17432 0.09095,-0.1099 0.09095,-0.28422 0,-0.12506 -0.068213,-0.20085 -0.068213,-0.0796 -0.1705322,-0.12127 -0.09853,-0.0417 -0.2160075,-0.0568 -0.1174778,-0.0152 -0.2122179,-0.0152 -0.306958,0 -0.6063368,0.10611 -0.2955891,0.10611 -0.5229654,0.31075 l -0.3183268,-1.37942 q 0.3486436,-0.28422 0.7920274,-0.43201 0.4471733,-0.15159 0.8981363,-0.15159 0.413067,0 0.7882378,0.12127 0.3789605,0.11748 0.6669705,0.35243 0.2880097,0.23117 0.4585417,0.57223 0.170533,0.34107 0.170533,0.78824 0,0.12885 -0.0379,0.26148 -0.0379,0.13264 -0.10232,0.2577 -0.06442,0.12505 -0.151584,0.23495 -0.08716,0.10611 -0.185691,0.18569 0.159164,0.072 0.261483,0.19327 0.10232,0.12127 0.162953,0.26906 0.06063,0.1478 0.08337,0.31454 0.02274,0.16295 0.02274,0.32212 z"
         style="font-style:normal;font-variant:normal;font-weight:normal;font-stretch:normal;font-size:7.76111078px;font-family:'Luckiest Guy';-inkscape-font-specification:'Luckiest Guy';fill:#454545;fill-opacity:1;stroke-width:0.26458332"
         id="path3068" />
    </g>
  </g>
</svg>
