<?xml version="1.0" encoding="UTF-8" standalone="no"?>
<!-- Created with Inkscape (http://www.inkscape.org/) -->

<svg
   xmlns:dc="http://purl.org/dc/elements/1.1/"
   xmlns:cc="http://creativecommons.org/ns#"
   xmlns:rdf="http://www.w3.org/1999/02/22-rdf-syntax-ns#"
   xmlns:svg="http://www.w3.org/2000/svg"
   xmlns="http://www.w3.org/2000/svg"
   xmlns:sodipodi="http://sodipodi.sourceforge.net/DTD/sodipodi-0.dtd"
   xmlns:inkscape="http://www.inkscape.org/namespaces/inkscape"
   width="64"
   height="64"
   viewBox="0 0 16.933333 16.933333"
   version="1.1"
   id="svg821"
   inkscape:version="0.92.3 (2405546, 2018-03-11)"
   sodipodi:docname="Num5.svg">
  <defs
     id="defs815" />
  <sodipodi:namedview
     id="base"
     pagecolor="#ffffff"
     bordercolor="#666666"
     borderopacity="1.0"
     inkscape:pageopacity="0.0"
     inkscape:pageshadow="2"
     inkscape:zoom="7.9195959"
     inkscape:cx="37.285532"
     inkscape:cy="30.823813"
     inkscape:document-units="px"
     inkscape:current-layer="layer1"
     showgrid="false"
     units="px"
     inkscape:window-width="1536"
     inkscape:window-height="811"
     inkscape:window-x="-8"
     inkscape:window-y="-8"
     inkscape:window-maximized="1" />
  <metadata
     id="metadata818">
    <rdf:RDF>
      <cc:Work
         rdf:about="">
        <dc:format>image/svg+xml</dc:format>
        <dc:type
           rdf:resource="http://purl.org/dc/dcmitype/StillImage" />
        <dc:title></dc:title>
      </cc:Work>
    </rdf:RDF>
  </metadata>
  <g
     inkscape:label="Layer 1"
     inkscape:groupmode="layer"
     id="layer1"
     transform="translate(0,-280.06667)">
    <path
       style="opacity:1;fill:#b3b3b3;fill-opacity:1;fill-rule:evenodd;stroke:none;stroke-width:1.05833328;stroke-miterlimit:4;stroke-dasharray:none;stroke-dashoffset:0;stroke-opacity:1"
       d="m 5.6507438,284.29999 c 2.0535809,0.29383 3.8382279,0.13944 5.6318452,0 0.782883,-0.0609 1.499291,0.63644 1.41741,1.41741 -0.20104,1.91749 -0.243555,3.80327 0,5.63184 0.103675,0.77838 -0.635306,1.48757 -1.41741,1.41741 -1.7432432,-0.15638 -3.621333,-0.15544 -5.6318452,0 -0.7829092,0.0605 -1.4603219,-0.63333 -1.4174107,-1.41741 0.1015059,-1.85472 0.2807598,-3.69217 0,-5.63184 -0.1124896,-0.77715 0.6400819,-1.52863 1.4174107,-1.41741 z"
       id="rect1366"
       inkscape:connector-curvature="0"
       sodipodi:nodetypes="sssssssss" />
    <g
       aria-label="5"
       style="font-style:normal;font-variant:normal;font-weight:normal;font-stretch:normal;font-size:10.58333302px;line-height:1.25;font-family:'Times New Roman';-inkscape-font-specification:'Times New Roman, ';letter-spacing:0px;word-spacing:0px;fill:#454545;fill-opacity:1;stroke:none;stroke-width:0.26458332"
       id="text1370">
      <path
         d="m 10.414708,289.50816 q 0,0.49265 -0.178111,0.85645 -0.174322,0.3638 -0.4774903,0.60255 -0.3031684,0.23874 -0.7124458,0.35622 -0.4092773,0.11748 -0.8753987,0.11748 -0.2235867,0 -0.4395941,-0.0303 -0.2160075,-0.0341 -0.4282254,-0.0872 -0.2084283,-0.0568 -0.4168565,-0.12885 -0.2046387,-0.072 -0.413067,-0.15537 l 0.144005,-1.50826 q 0.1364258,0.0758 0.2917996,0.14021 0.1553738,0.0644 0.3183268,0.1099 0.1667426,0.0455 0.3334852,0.072 0.1705323,0.0265 0.3296957,0.0265 0.09474,0 0.2311659,-0.0152 0.1364257,-0.0189 0.2614827,-0.0644 0.125057,-0.0493 0.2122179,-0.12885 0.09095,-0.0834 0.09095,-0.216 0,-0.12506 -0.072002,-0.21601 -0.068213,-0.091 -0.181901,-0.1478 -0.1098986,-0.0606 -0.250114,-0.0947 -0.1402153,-0.0341 -0.2842203,-0.053 -0.1402154,-0.019 -0.269062,-0.0227 -0.1250569,-0.004 -0.2084282,-0.004 -0.1705323,0 -0.3486437,0.0152 -0.1743218,0.0152 -0.3410644,0.0606 l 0.1515842,-3.062 3.0695799,-0.0834 0.083372,1.58406 -1.9023818,-0.10611 -0.037896,0.67455 q 0.1705322,-0.0417 0.3410645,-0.0606 0.1705322,-0.0227 0.3410644,-0.0227 0.344854,0 0.6404432,0.11368 0.2993788,0.1099 0.5191759,0.31833 0.2235869,0.20843 0.3486439,0.50402 0.128846,0.2918 0.128846,0.6556 z"
         style="font-style:normal;font-variant:normal;font-weight:normal;font-stretch:normal;font-size:7.76111078px;font-family:'Luckiest Guy';-inkscape-font-specification:'Luckiest Guy';fill:#454545;fill-opacity:1;stroke-width:0.26458332"
         id="path1374" />
    </g>
  </g>
</svg>
