<?xml version="1.0" encoding="UTF-8" standalone="no"?>
<!-- Created with Inkscape (http://www.inkscape.org/) -->

<svg
   xmlns:dc="http://purl.org/dc/elements/1.1/"
   xmlns:cc="http://creativecommons.org/ns#"
   xmlns:rdf="http://www.w3.org/1999/02/22-rdf-syntax-ns#"
   xmlns:svg="http://www.w3.org/2000/svg"
   xmlns="http://www.w3.org/2000/svg"
   xmlns:sodipodi="http://sodipodi.sourceforge.net/DTD/sodipodi-0.dtd"
   xmlns:inkscape="http://www.inkscape.org/namespaces/inkscape"
   width="80"
   height="60"
   viewBox="0 0 21.166666 15.875001"
   version="1.1"
   id="svg8"
   inkscape:version="0.92.3 (2405546, 2018-03-11)"
   sodipodi:docname="ButtonPress.svg">
  <defs
     id="defs2" />
  <sodipodi:namedview
     id="base"
     pagecolor="#ffffff"
     bordercolor="#666666"
     borderopacity="1.0"
     inkscape:pageopacity="0.0"
     inkscape:pageshadow="2"
     inkscape:zoom="1.4"
     inkscape:cx="-113.24735"
     inkscape:cy="114.16649"
     inkscape:document-units="mm"
     inkscape:current-layer="layer1"
     showgrid="false"
     units="px"
     inkscape:window-width="1536"
     inkscape:window-height="811"
     inkscape:window-x="-8"
     inkscape:window-y="-8"
     inkscape:window-maximized="1"
     inkscape:snap-nodes="false"
     inkscape:snap-global="false" />
  <metadata
     id="metadata5">
    <rdf:RDF>
      <cc:Work
         rdf:about="">
        <dc:format>image/svg+xml</dc:format>
        <dc:type
           rdf:resource="http://purl.org/dc/dcmitype/StillImage" />
        <dc:title></dc:title>
      </cc:Work>
    </rdf:RDF>
  </metadata>
  <g
     inkscape:label="Layer 1"
     inkscape:groupmode="layer"
     id="layer1"
     transform="translate(0,-281.12498)">
    <path
       style="opacity:1;fill:#f0d977;fill-opacity:1;fill-rule:evenodd;stroke:none;stroke-width:0.26458335;stroke-miterlimit:4;stroke-dasharray:0.26458332, 0.79374997;stroke-dashoffset:0;stroke-opacity:1"
       d="M 0.70158249,281.17224 H 20.402088 c 0.388676,0 0.701582,0.31291 0.701582,0.70158 v 14.42459 c 0,0.38868 -0.312906,0.70159 -0.701582,0.70159 H 0.70158249 C 0.31290579,297 0,296.68709 0,296.29841 v -14.42459 c 0,-0.38867 0.31290579,-0.70158 0.70158249,-0.70158 z"
       id="rect2525" />
    <path
       style="opacity:1;fill:#d9c67b;fill-opacity:1;fill-rule:evenodd;stroke:none;stroke-width:0.26458332;stroke-miterlimit:4;stroke-dasharray:0.26458332, 0.79374995000000004;stroke-dashoffset:0;stroke-opacity:1"
       d="m 2.6370979,281.66547 c 4.9042307,0.59692 10.6999951,0.19652 15.8293331,0.11812 1.148122,-0.0179 2.262187,0.94018 2.072664,2.07268 -0.551826,3.29745 -0.01396,7.25637 0,10.55383 0.0048,1.14825 -0.928863,2.17373 -2.072664,2.07267 -5.784629,-0.51108 -11.0142258,-0.26333 -15.8293331,-0.0472 -1.1471019,0.0514 -2.14646843,-0.92678 -2.07266474,-2.07267 0.2123789,-3.29746 0.4027345,-7.32725 0,-10.6247 -0.13920725,-1.13978 0.93282074,-2.21142 2.07266474,-2.07268 z"
       id="rect2527"
       inkscape:connector-curvature="0"
       sodipodi:nodetypes="sssssssss" />
    <path
       sodipodi:nodetypes="sssssssss"
       inkscape:connector-curvature="0"
       id="path7176"
       d="m 3.1794459,282.65697 c 4.5683863,0.52089 9.9672531,0.17149 14.7453311,0.10308 1.069498,-0.0156 2.107271,0.82041 1.930727,1.80866 -0.514037,2.87741 -0.013,6.33203 0,9.20945 0.0044,1.00198 -0.865254,1.89683 -1.930727,1.80865 -5.388494,-0.44598 -10.259965,-0.22979 -14.7453311,-0.0412 -1.0685477,0.0449 -1.999477,-0.80872 -1.9307275,-1.80865 0.1978351,-2.87742 0.3751551,-6.39389 0,-9.2713 -0.1296742,-0.99459 0.8689406,-1.92973 1.9307275,-1.80865 z"
       style="opacity:1;fill:#b8ab74;fill-opacity:1;fill-rule:evenodd;stroke:none;stroke-width:0.26458332;stroke-miterlimit:4;stroke-dasharray:0.26458332, 0.79374995000000004;stroke-dashoffset:0;stroke-opacity:1" />
  </g>
</svg>
