<?xml version="1.0" encoding="UTF-8" standalone="no"?>
<!-- Created with Inkscape (http://www.inkscape.org/) -->

<svg
   xmlns:dc="http://purl.org/dc/elements/1.1/"
   xmlns:cc="http://creativecommons.org/ns#"
   xmlns:rdf="http://www.w3.org/1999/02/22-rdf-syntax-ns#"
   xmlns:svg="http://www.w3.org/2000/svg"
   xmlns="http://www.w3.org/2000/svg"
   xmlns:sodipodi="http://sodipodi.sourceforge.net/DTD/sodipodi-0.dtd"
   xmlns:inkscape="http://www.inkscape.org/namespaces/inkscape"
   width="1600"
   height="1200"
   viewBox="0 0 423.33332 317.50002"
   version="1.1"
   id="svg8"
   inkscape:version="0.92.3 (2405546, 2018-03-11)"
   sodipodi:docname="ActualWinScreen.svg">
  <defs
     id="defs2" />
  <sodipodi:namedview
     id="base"
     pagecolor="#ffffff"
     bordercolor="#666666"
     borderopacity="1.0"
     inkscape:pageopacity="0.0"
     inkscape:pageshadow="2"
     inkscape:zoom="0.32"
     inkscape:cx="589.13403"
     inkscape:cy="613.19386"
     inkscape:document-units="mm"
     inkscape:current-layer="layer3"
     showgrid="false"
     units="px"
     inkscape:window-width="1536"
     inkscape:window-height="811"
     inkscape:window-x="-8"
     inkscape:window-y="-8"
     inkscape:window-maximized="1"
     inkscape:snap-others="false"
     inkscape:object-nodes="false"
     inkscape:snap-nodes="false"
     inkscape:snap-global="false"
     inkscape:pagecheckerboard="true" />
  <metadata
     id="metadata5">
    <rdf:RDF>
      <cc:Work
         rdf:about="">
        <dc:format>image/svg+xml</dc:format>
        <dc:type
           rdf:resource="http://purl.org/dc/dcmitype/StillImage" />
        <dc:title></dc:title>
      </cc:Work>
    </rdf:RDF>
  </metadata>
  <g
     inkscape:groupmode="layer"
     id="layer3"
     inkscape:label="BG"
     transform="translate(0,158.75)">
    <rect
       style="opacity:1;fill:#f2e4a8;fill-opacity:1;fill-rule:evenodd;stroke:none;stroke-width:1.05833316;stroke-miterlimit:4;stroke-dasharray:none;stroke-dashoffset:0;stroke-opacity:1"
       id="rect3932"
       width="424.1604"
       height="319.98065"
       x="-0.41341141"
       y="-161.27225" />
    <path
       style="opacity:1;fill:#f0d977;fill-opacity:1;fill-rule:evenodd;stroke:none;stroke-width:1.05833316;stroke-miterlimit:4;stroke-dasharray:none;stroke-dashoffset:0;stroke-opacity:1"
       d="M 11.653587,70.605139 C 46.469016,121.91857 107.57618,161.96411 174.8316,199.37472 254.14552,161.58299 329.06735,128.38347 412.77334,36.888779 336.24035,15.420036 274.15548,-2.4366768 204.84655,-22.099404 139.57293,6.9250512 67.22182,20.783435 11.653587,70.605139 Z"
       id="path3934"
       inkscape:connector-curvature="0"
       sodipodi:nodetypes="ccccc" />
    <path
       sodipodi:nodetypes="ccccc"
       inkscape:connector-curvature="0"
       id="path3936"
       d="M 28.608509,71.108639 C 62.503821,114.83883 116.59816,143.7721 176.03978,185.34305 242.4002,143.15556 307.78548,122.92831 388.80258,41.727382 317.73558,21.902182 270.60853,8.9204022 206.24966,-9.2370488 145.6379,17.565443 80.20806,25.101028 28.608509,71.108639 Z"
       style="opacity:1;fill:#ffec98;fill-opacity:1;fill-rule:evenodd;stroke:none;stroke-width:1.05833316;stroke-miterlimit:4;stroke-dasharray:none;stroke-dashoffset:0;stroke-opacity:1" />
    <g
       style="stroke-width:0.4999997"
       id="g3889"
       transform="matrix(2.0000012,0,0,2.0000012,-282.55838,-198.20567)">
      <path
         sodipodi:nodetypes="ccccccc"
         inkscape:connector-curvature="0"
         id="path3823"
         d="m 221.29081,118.84749 3.18585,2.99362 54.40238,26.38515 V 82.745227 l -59.34219,-24.993876 0.7944,56.269799 z"
         style="opacity:1;fill:#a28254;fill-opacity:1;fill-rule:evenodd;stroke:none;stroke-width:0.52916628;stroke-miterlimit:4;stroke-dasharray:none;stroke-dashoffset:0;stroke-opacity:1" />
      <path
         sodipodi:nodetypes="ccccccc"
         inkscape:connector-curvature="0"
         id="path3825"
         d="m 278.91678,82.809894 56.63736,-25.218099 0.38436,58.805945 -1.62459,3.20577 -2.35885,3.05885 -53.4517,24.22631 z"
         style="opacity:1;fill:#96784d;fill-opacity:1;fill-rule:evenodd;stroke:none;stroke-width:0.52916628;stroke-miterlimit:4;stroke-dasharray:none;stroke-dashoffset:0;stroke-opacity:1" />
      <path
         sodipodi:nodetypes="ccccccc"
         inkscape:connector-curvature="0"
         id="path3827"
         d="m 219.69036,57.829625 59.77638,25.535719 55.60983,-24.968799 -50.51594,-22.846898 -5.09694,-0.453565 -5.31578,0.532353 z"
         style="opacity:1;fill:#a6865c;fill-opacity:1;fill-rule:evenodd;stroke:none;stroke-width:0.52916628;stroke-miterlimit:4;stroke-dasharray:none;stroke-dashoffset:0;stroke-opacity:1" />
      <path
         sodipodi:nodetypes="ccccc"
         inkscape:connector-curvature="0"
         id="path3829"
         d="m 247.78464,69.971212 54.90545,-26.410329 1.44478,0.801745 -54.98372,26.044922 z"
         style="opacity:1;fill:#907246;fill-opacity:1;fill-rule:evenodd;stroke:none;stroke-width:0.52916628;stroke-miterlimit:4;stroke-dasharray:none;stroke-dashoffset:0;stroke-opacity:1" />
      <path
         inkscape:connector-curvature="0"
         id="path3831"
         d="m 245.8462,46.789124 56.71125,26.893997 0.58465,29.524929 3.05983,6.16353 1.5503,-7.2347 2.89388,2.58382 1.34358,-3.61735 2.58382,5.89111 0.72347,-7.027991 0.31006,-32.866211 -59.09094,-24.696025 z"
         style="opacity:1;fill:#cabca8;fill-opacity:0.63333333;fill-rule:evenodd;stroke:none;stroke-width:0.52916628;stroke-miterlimit:4;stroke-dasharray:none;stroke-dashoffset:0;stroke-opacity:1" />
      <path
         inkscape:connector-curvature="0"
         id="path3833"
         d="m 303.79984,46.862205 c -0.25579,0.146163 -7.38123,3.83678 -7.38123,3.83678 l 12.6431,5.663817 7.49085,-4.421432 z"
         style="opacity:1;fill:#ffffff;fill-opacity:1;fill-rule:evenodd;stroke:none;stroke-width:0.52916628;stroke-miterlimit:4;stroke-dasharray:none;stroke-dashoffset:0;stroke-opacity:1" />
      <path
         sodipodi:nodetypes="ccccc"
         inkscape:connector-curvature="0"
         id="path3835"
         d="m 303.5083,47.799111 6.56936,2.919718 0.46509,-0.361735 -6.6921,-2.89388 z"
         style="opacity:1;fill:#4d4d4d;fill-opacity:1;fill-rule:evenodd;stroke:none;stroke-width:0.52916628;stroke-miterlimit:4;stroke-dasharray:none;stroke-dashoffset:0;stroke-opacity:1" />
      <path
         sodipodi:nodetypes="ccccc"
         inkscape:connector-curvature="0"
         id="path3837"
         d="m 303.1724,47.883085 6.59521,3.016612 -0.42633,0.271301 -6.54999,-3.023071 z"
         style="opacity:1;fill:#4d4d4d;fill-opacity:1;fill-rule:evenodd;stroke:none;stroke-width:0.52916628;stroke-miterlimit:4;stroke-dasharray:none;stroke-dashoffset:0;stroke-opacity:1" />
      <path
         sodipodi:nodetypes="ccccc"
         inkscape:connector-curvature="0"
         id="path3839"
         d="m 289.90226,46.8405 7.75837,-3.542747 -3.56567,-1.808675 -7.83513,3.886749 z"
         style="opacity:1;fill:#ffffff;fill-opacity:1;fill-rule:evenodd;stroke:none;stroke-width:0.52916628;stroke-miterlimit:4;stroke-dasharray:none;stroke-dashoffset:0;stroke-opacity:1" />
      <path
         inkscape:connector-curvature="0"
         id="path3841"
         d="m 292.69145,40.979144 c -0.21925,0.109622 -2.19245,1.132763 -2.19245,1.132763 l -4.60413,-2.155904 1.9732,-0.986601 5.04262,2.155905 z"
         style="opacity:1;fill:#ffffff;fill-opacity:1;fill-rule:evenodd;stroke:none;stroke-width:0.52916628;stroke-miterlimit:4;stroke-dasharray:none;stroke-dashoffset:0;stroke-opacity:1" />
      <path
         inkscape:connector-curvature="0"
         id="path3843"
         d="m 285.16405,40.32141 4.23873,2.155905 -3.80024,1.973201 -4.38489,-2.338609 z"
         style="opacity:1;fill:#ffffff;fill-opacity:1;fill-rule:evenodd;stroke:none;stroke-width:0.52916628;stroke-miterlimit:4;stroke-dasharray:none;stroke-dashoffset:0;stroke-opacity:1" />
    </g>
    <g
       style="stroke-width:0.4999997"
       id="g3726"
       transform="matrix(2.0000012,0,0,2.0000012,109.74342,-482.30629)" />
    <flowRoot
       xml:space="preserve"
       id="flowRoot3685"
       style="font-style:normal;font-variant:normal;font-weight:normal;font-stretch:normal;font-size:40px;line-height:1.25;font-family:'Luckiest Guy';-inkscape-font-specification:'Luckiest Guy';letter-spacing:0px;word-spacing:0px;fill:#000000;fill-opacity:1;stroke:none;stroke-width:0.4999997"
       transform="matrix(0.52916699,0,0,0.52916699,0.41341195,-159.6186)"><flowRegion
         id="flowRegion3687"
         style="stroke-width:0.4999997"><rect
           id="rect3689"
           width="87.283493"
           height="47.508736"
           x="202.18834"
           y="312.73785"
           style="stroke-width:0.4999997" /></flowRegion><flowPara
         id="flowPara3691"
         style="stroke-width:0.4999997" /></flowRoot>    <g
       style="stroke-width:0.4999997"
       id="g3927"
       transform="matrix(2.0000012,0,0,2.0000012,48.396462,-441.99968)">
      <g
         transform="rotate(-4.9431562,143.23282,86.127414)"
         id="g3736"
         style="stroke-width:0.4999997">
        <path
           sodipodi:nodetypes="ccscsc"
           inkscape:connector-curvature="0"
           id="path3728"
           d="m 39.171689,228.74185 c 8.185132,3.21558 50.864733,16.95491 61.973121,20.46282 5.99269,3.65407 6.28502,16.80875 -7.308149,21.3398 -10.554754,3.51825 -55.541949,-22.65527 -58.465208,-24.99388 -2.923262,-2.3386 -13.90261,-6.96626 -9.500598,-13.447 5.26187,-7.74664 9.500597,-5.1157 13.300834,-3.36174 z"
           style="opacity:1;fill:#4d4d4d;fill-opacity:1;fill-rule:evenodd;stroke:none;stroke-width:0.52916628;stroke-miterlimit:4;stroke-dasharray:none;stroke-dashoffset:0;stroke-opacity:1" />
        <path
           style="opacity:1;fill:#393939;fill-opacity:1;fill-rule:evenodd;stroke:none;stroke-width:0.52916628;stroke-miterlimit:4;stroke-dasharray:none;stroke-dashoffset:0;stroke-opacity:1"
           d="m 33.909821,230.9343 c 8.185132,3.21558 48.233798,16.66259 59.342186,20.1705 5.99269,3.65407 7.746653,17.97805 -3.21558,19.87817 -10.962233,1.90012 -54.080323,-17.8319 -57.003582,-20.17051 -2.923262,-2.3386 -8.915945,-8.18513 -7.746641,-15.93177 1.169305,-7.74664 4.82338,-5.70035 8.623617,-3.94639 z"
           id="path3730"
           inkscape:connector-curvature="0"
           sodipodi:nodetypes="ccscsc" />
        <path
           inkscape:connector-curvature="0"
           id="path3732"
           d="m 31.425049,236.70773 c 2.996343,0.0731 5.261869,1.90012 4.677217,4.53105 -0.584653,2.63094 -3.142504,3.06943 -4.38489,1.24239 -1.242385,-1.82704 -1.900121,-4.45797 -0.292327,-5.77344 z"
           style="opacity:1;fill:#232323;fill-opacity:1;fill-rule:evenodd;stroke:none;stroke-width:0.52916628;stroke-miterlimit:4;stroke-dasharray:none;stroke-dashoffset:0;stroke-opacity:1" />
      </g>
      <path
         inkscape:connector-curvature="0"
         id="path3683"
         d="m 10.779523,245.11211 -0.380868,17.11011 53.123372,17.15658 37.000323,-15.29623 -1.24023,-14.26269"
         style="opacity:1;fill:#968f7a;fill-opacity:1;fill-rule:evenodd;stroke:none;stroke-width:0.52916628;stroke-miterlimit:4;stroke-dasharray:none;stroke-dashoffset:0;stroke-opacity:1" />
      <path
         inkscape:connector-curvature="0"
         id="path3669"
         d="M 10.817972,245.14833 63.734638,261.4013 99.64237,249.68404 49.74952,237.5888 Z"
         style="opacity:1;fill:#9c9481;fill-opacity:1;fill-rule:evenodd;stroke:none;stroke-width:0.52916628;stroke-miterlimit:4;stroke-dasharray:none;stroke-dashoffset:0;stroke-opacity:1" />
      <g
         transform="translate(-26.60167,19.585845)"
         id="g3716"
         style="stroke-width:0.4999997">
        <path
           style="opacity:1;fill:#ffffff;fill-opacity:1;fill-rule:evenodd;stroke:none;stroke-width:0.52916628;stroke-miterlimit:4;stroke-dasharray:none;stroke-dashoffset:0;stroke-opacity:1"
           d="m 103.84883,228.44952 c 0.80389,1.9732 8.84286,3.43483 11.40071,2.48477 2.55785,-0.95006 1.86694,-8.05594 -1.82703,-8.98902 -2.99635,-0.8039 -9.28136,-0.43849 -9.57368,6.50425 z"
           id="path3693"
           inkscape:connector-curvature="0"
           sodipodi:nodetypes="cscc" />
        <circle
           style="opacity:1;fill:#000000;fill-opacity:1;fill-rule:evenodd;stroke:none;stroke-width:0.52916628;stroke-miterlimit:4;stroke-dasharray:none;stroke-dashoffset:0;stroke-opacity:1"
           id="path3695"
           cx="112.58206"
           cy="226.00128"
           r="3.4713719" />
      </g>
      <g
         transform="translate(-27.738552,19.379139)"
         id="g3712"
         style="stroke-width:0.4999997">
        <path
           style="opacity:1;fill:#4d4d4d;fill-opacity:1;fill-rule:evenodd;stroke:none;stroke-width:0.52916628;stroke-miterlimit:4;stroke-dasharray:none;stroke-dashoffset:0;stroke-opacity:1"
           d="m 39.171689,228.74185 c 8.185132,3.21558 50.864733,16.95491 61.973121,20.46282 5.99269,3.65407 6.28502,16.80875 -7.308149,21.3398 -10.554754,3.51825 -55.541949,-22.65527 -58.465208,-24.99388 -2.923262,-2.3386 -13.90261,-6.96626 -9.500598,-13.447 5.26187,-7.74664 9.500597,-5.1157 13.300834,-3.36174 z"
           id="path3697"
           inkscape:connector-curvature="0"
           sodipodi:nodetypes="ccscsc" />
        <path
           sodipodi:nodetypes="ccscsc"
           inkscape:connector-curvature="0"
           id="path3699"
           d="m 33.909821,230.9343 c 8.185132,3.21558 48.233798,16.66259 59.342186,20.1705 5.99269,3.65407 7.746653,17.97805 -3.21558,19.87817 -10.962233,1.90012 -54.080323,-17.8319 -57.003582,-20.17051 -2.923262,-2.3386 -8.915945,-8.18513 -7.746641,-15.93177 1.169305,-7.74664 4.82338,-5.70035 8.623617,-3.94639 z"
           style="opacity:1;fill:#393939;fill-opacity:1;fill-rule:evenodd;stroke:none;stroke-width:0.52916628;stroke-miterlimit:4;stroke-dasharray:none;stroke-dashoffset:0;stroke-opacity:1" />
        <path
           style="opacity:1;fill:#232323;fill-opacity:1;fill-rule:evenodd;stroke:none;stroke-width:0.52916628;stroke-miterlimit:4;stroke-dasharray:none;stroke-dashoffset:0;stroke-opacity:1"
           d="m 31.425049,236.70773 c 2.996343,0.0731 5.261869,1.90012 4.677217,4.53105 -0.584653,2.63094 -3.142504,3.06943 -4.38489,1.24239 -1.242385,-1.82704 -1.900121,-4.45797 -0.292327,-5.77344 z"
           id="path3704"
           inkscape:connector-curvature="0" />
        <path
           style="opacity:1;fill:#232323;fill-opacity:1;fill-rule:evenodd;stroke:none;stroke-width:0.52916628;stroke-miterlimit:4;stroke-dasharray:none;stroke-dashoffset:0;stroke-opacity:1"
           d="m 76.746342,253.89139 c 3.87332,0.95006 5.627278,3.43483 4.7503,5.62727 -0.87698,2.19245 -3.654075,1.75396 -5.261869,1.75396 -1.607793,0 -4.165648,-2.04628 -3.87332,-4.67722 0.292325,-2.63093 2.630935,-3.58099 4.384889,-2.70401 z"
           id="path3706"
           inkscape:connector-curvature="0" />
      </g>
      <path
         sodipodi:nodetypes="sssss"
         inkscape:connector-curvature="0"
         id="path3748"
         d="m 51.035974,237.92459 c 0.07997,0.85122 -0.19665,1.05077 -1.315467,1.03752 -0.954787,-0.0113 -1.420745,-0.0399 -1.315467,-1.03752 0.0826,-0.78271 0.588954,-1.42509 1.315467,-1.42509 0.726513,0 1.24185,0.64149 1.315467,1.42509 z"
         style="opacity:1;fill:#d40000;fill-opacity:1;fill-rule:evenodd;stroke:none;stroke-width:0.52916628;stroke-miterlimit:4;stroke-dasharray:none;stroke-dashoffset:0;stroke-opacity:1" />
      <path
         style="opacity:1;fill:#d40000;fill-opacity:1;fill-rule:evenodd;stroke:none;stroke-width:0.52916628;stroke-miterlimit:4;stroke-dasharray:none;stroke-dashoffset:0;stroke-opacity:1"
         d="m 54.033207,238.54471 c 0.07997,0.85122 -0.19665,1.05077 -1.315467,1.03752 -0.954787,-0.0113 -1.420745,-0.0399 -1.315467,-1.03752 0.0826,-0.78271 0.588954,-1.42509 1.315467,-1.42509 0.726513,0 1.24185,0.64149 1.315467,1.42509 z"
         id="path3751"
         inkscape:connector-curvature="0"
         sodipodi:nodetypes="sssss" />
      <path
         sodipodi:nodetypes="sssss"
         inkscape:connector-curvature="0"
         id="path3753"
         d="m 57.237146,239.31986 c 0.07997,0.85122 -0.19665,1.05077 -1.315467,1.03752 -0.954787,-0.0113 -1.420745,-0.0399 -1.315467,-1.03752 0.0826,-0.78271 0.588954,-1.42509 1.315467,-1.42509 0.726513,0 1.24185,0.64149 1.315467,1.42509 z"
         style="opacity:1;fill:#36a200;fill-opacity:1;fill-rule:evenodd;stroke:none;stroke-width:0.52916628;stroke-miterlimit:4;stroke-dasharray:none;stroke-dashoffset:0;stroke-opacity:1" />
      <g
         transform="translate(-28.151963,18.087229)"
         id="g3772"
         style="stroke-width:0.4999997">
        <g
           id="g3758"
           transform="translate(1.2402344,2.273763)"
           style="stroke-width:0.4999997">
          <path
             sodipodi:nodetypes="ccccccc"
             inkscape:connector-curvature="0"
             id="path3740"
             d="m 73.587239,227.34015 1.653645,-3.514 11.058756,2.99723 9.818523,-3.77238 -15.296224,-1.49861 -5.994466,1.65364 z"
             style="opacity:1;fill:#766c56;fill-opacity:1;fill-rule:evenodd;stroke:none;stroke-width:0.52916628;stroke-miterlimit:4;stroke-dasharray:none;stroke-dashoffset:0;stroke-opacity:1" />
          <path
             inkscape:connector-curvature="0"
             id="path3742"
             d="m 73.173827,228.37368 1.757,-4.96094 12.60905,2.68717 0.02508,12.71456 z"
             style="opacity:1;fill:#766c56;fill-opacity:1;fill-rule:evenodd;stroke:none;stroke-width:0.52916628;stroke-miterlimit:4;stroke-dasharray:none;stroke-dashoffset:0;stroke-opacity:1"
             sodipodi:nodetypes="ccccc" />
          <path
             sodipodi:nodetypes="ccccc"
             inkscape:connector-curvature="0"
             id="path3746"
             d="m 87.539875,225.89321 -0.206704,12.81576 14.303979,-5.06277 -5.62234,-10.54352 z"
             style="opacity:1;fill:#363636;fill-opacity:1;fill-rule:evenodd;stroke:none;stroke-width:0.52916628;stroke-miterlimit:4;stroke-dasharray:none;stroke-dashoffset:0;stroke-opacity:1" />
        </g>
        <path
           style="opacity:1;fill:#000000;fill-opacity:1;fill-rule:evenodd;stroke:none;stroke-width:0.52916628;stroke-miterlimit:4;stroke-dasharray:none;stroke-dashoffset:0;stroke-opacity:1"
           d="M 101.52168,235.78946 C 98.854207,235.35097 88.830577,233.0902 88.830577,233.0902 l 0.182702,-4.85993 7.527398,-2.30206 4.818803,9.54013 z"
           id="path3760"
           inkscape:connector-curvature="0"
           sodipodi:nodetypes="cccccc" />
        <path
           style="opacity:1;fill:#80765d;fill-opacity:1;fill-rule:evenodd;stroke:none;stroke-width:0.52916628;stroke-miterlimit:4;stroke-dasharray:none;stroke-dashoffset:0;stroke-opacity:1"
           d="m 89.621933,240.77522 c -0.03654,-0.21925 -0.09708,-11.92375 -0.09708,-11.92375 l 7.856262,-2.92326 0.08822,-0.65146 -8.841026,2.74682 -0.05351,12.92289 z"
           id="path3762"
           inkscape:connector-curvature="0"
           sodipodi:nodetypes="ccccccc" />
      </g>
      <path
         sodipodi:nodetypes="ccsccc"
         inkscape:connector-curvature="0"
         id="path3764"
         d="m 62.777019,260.23998 c 0,0 34.567551,-11.47379 35.006041,-11.40071 0.2249,0.0375 1.49964,0.24372 2.18978,1.43252 0.65547,1.12908 0.73349,3.24469 0.73349,3.24469 l -34.786808,12.27769 -3.069421,-2.19243"
         style="opacity:1;fill:#f9f9f9;fill-opacity:1;fill-rule:evenodd;stroke:none;stroke-width:0.52916628;stroke-miterlimit:4;stroke-dasharray:none;stroke-dashoffset:0;stroke-opacity:1" />
      <path
         sodipodi:nodetypes="ccssccc"
         inkscape:connector-curvature="0"
         id="path3774"
         d="m 160.79984,236.53195 -111.374614,39.038 c 0,0 -3.973815,10.12242 -3.180121,9.89071 1.001354,-0.29232 2.788279,2.22069 7.473225,0.5302 26.45957,-9.5475 112.86927,-44.49797 112.86927,-44.49797 l 0.41341,-5.78776 z"
         style="opacity:1;fill:#f9f9f9;fill-opacity:1;fill-rule:evenodd;stroke:none;stroke-width:0.52916628;stroke-miterlimit:4;stroke-dasharray:none;stroke-dashoffset:0;stroke-opacity:1" />
      <path
         sodipodi:nodetypes="ccccc"
         inkscape:connector-curvature="0"
         id="path3776"
         d="m 64.658909,263.56581 6.304524,6.51123 6.407877,-1.86035 -8.888346,-8.47494 c -1.10243,0.55122 -4.311057,8.9948 -3.824055,3.82406 z"
         style="opacity:1;fill:#f9f9f9;fill-opacity:1;fill-rule:evenodd;stroke:none;stroke-width:0.52916628;stroke-miterlimit:4;stroke-dasharray:none;stroke-dashoffset:0;stroke-opacity:1" />
      <path
         sodipodi:nodetypes="ccccc"
         inkscape:connector-curvature="0"
         id="path3778"
         d="m 93.70106,254.1607 c 1.24024,0.62011 46.9222,-5.78776 47.74903,-5.99447 0.82682,-0.2067 6.82128,-4.54752 6.82128,-4.54752 l -52.08983,5.89111 z"
         style="opacity:1;fill:#f9f9f9;fill-opacity:1;fill-rule:evenodd;stroke:none;stroke-width:0.52916628;stroke-miterlimit:4;stroke-dasharray:none;stroke-dashoffset:0;stroke-opacity:1" />
      <path
         sodipodi:nodetypes="ccccc"
         inkscape:connector-curvature="0"
         id="path3780"
         d="m 72.496859,266.15958 c 1.900111,-0.87698 36.248431,-16.80874 36.248431,-16.80874 0.57997,0.3914 1.83867,5.81788 1.02314,3.06942 L 73.95849,268.0597 Z"
         style="opacity:1;fill:#f9f9f9;fill-opacity:1;fill-rule:evenodd;stroke:none;stroke-width:0.52916628;stroke-miterlimit:4;stroke-dasharray:none;stroke-dashoffset:0;stroke-opacity:1" />
      <path
         sodipodi:nodetypes="ccscsc"
         inkscape:connector-curvature="0"
         id="path3782"
         d="m 27.778147,243.54411 c 0.775147,0.0517 14.504866,-3.4394 14.504866,-3.4394 0,0 -4.030761,-1.18856 -4.392496,-1.18856 -0.361736,0 -13.125813,2.37712 -13.125813,2.37712 0,0 -0.981852,2.11873 -0.671795,2.11873 0.31006,0 3.685238,0.13211 3.685238,0.13211 z"
         style="opacity:1;fill:#f9f9f9;fill-opacity:1;fill-rule:evenodd;stroke:none;stroke-width:0.52916628;stroke-miterlimit:4;stroke-dasharray:none;stroke-dashoffset:0;stroke-opacity:1" />
      <path
         inkscape:connector-curvature="0"
         id="path3784"
         d="m 3.3706598,233.49013 c 3.100586,-0.20671 35.5533852,-9.09506 35.5533852,-9.09506 l -8.888346,-1.03352 c 0,0 -33.0729162,7.02799 -31.00585924,7.4414 2.06705704,0.41341 4.34082004,2.68718 4.34082004,2.68718 z"
         style="opacity:1;fill:#f9f9f9;fill-opacity:1;fill-rule:evenodd;stroke:none;stroke-width:0.52916628;stroke-miterlimit:4;stroke-dasharray:none;stroke-dashoffset:0;stroke-opacity:1" />
      <path
         sodipodi:nodetypes="cccccc"
         inkscape:connector-curvature="0"
         id="path3786"
         d="m -1.3835712,230.6996 0.258382,4.49585 c 0,0 4.444174,1.18856 4.392498,0.77514 -0.05168,-0.41341 0.103351,-2.79052 0.103351,-2.79052 -0.608978,-1.46207 -2.336902,-2.32737 -5.012613,-2.68718 z"
         style="opacity:1;fill:#f9f9f9;fill-opacity:1;fill-rule:evenodd;stroke:none;stroke-width:0.52916628;stroke-miterlimit:4;stroke-dasharray:none;stroke-dashoffset:0;stroke-opacity:1" />
      <path
         sodipodi:nodetypes="ccccc"
         inkscape:connector-curvature="0"
         id="path3788"
         d="m 3.1122788,235.81556 c 0,0 35.2950032,-7.38973 35.1916492,-7.90649 -0.103351,-0.51676 0,-3.514 0,-3.514 l -34.6232072,7.95817 z"
         style="opacity:1;fill:#f9f9f9;fill-opacity:1;fill-rule:evenodd;stroke:none;stroke-width:0.52916628;stroke-miterlimit:4;stroke-dasharray:none;stroke-dashoffset:0;stroke-opacity:1" />
      <path
         sodipodi:nodetypes="ccccc"
         inkscape:connector-curvature="0"
         id="path3790"
         d="m 3.2673088,234.52365 c 0.620117,0.10336 21.2906902,8.68165 21.2906902,8.68165 l 2.480468,-2.17041 -21.2906892,-9.40512 z"
         style="opacity:1;fill:#f9f9f9;fill-opacity:1;fill-rule:evenodd;stroke:none;stroke-width:0.52916628;stroke-miterlimit:4;stroke-dasharray:none;stroke-dashoffset:0;stroke-opacity:1" />
      <path
         inkscape:connector-curvature="0"
         id="path3792"
         d="m 37.993871,239.27789 -0.930177,-12.40235 -3.307292,-0.10335 1.550294,13.22916 z"
         style="opacity:1;fill:#f9f9f9;fill-opacity:1;fill-rule:evenodd;stroke:none;stroke-width:0.52916628;stroke-miterlimit:4;stroke-dasharray:none;stroke-dashoffset:0;stroke-opacity:1" />
      <path
         inkscape:connector-curvature="0"
         id="path3794"
         d="m 19.080296,237.9343 c 0.413411,0 16.536458,-4.23747 16.536458,-4.23747 l -0.413412,-1.757 -19.740395,4.34082 z"
         style="opacity:1;fill:#f9f9f9;fill-opacity:1;fill-rule:evenodd;stroke:none;stroke-width:0.52916628;stroke-miterlimit:4;stroke-dasharray:none;stroke-dashoffset:0;stroke-opacity:1" />
    </g>
    <flowRoot
       xml:space="preserve"
       id="flowRoot7816"
       style="fill:black;fill-opacity:1;stroke:none;font-family:'Luckiest Guy';font-style:normal;font-weight:normal;font-size:40px;line-height:1.25;letter-spacing:0px;word-spacing:0px;-inkscape-font-specification:'Luckiest Guy';font-stretch:normal;font-variant:normal"><flowRegion
         id="flowRegion7818"><rect
           id="rect7820"
           width="896.875"
           height="68.75"
           x="321.875"
           y="228.125" /></flowRegion><flowPara
         id="flowPara7822"></flowPara></flowRoot>    <g
       aria-label="You WON!"
       transform="matrix(0.26458333,0,0,0.26458333,-57.877604,-211.66667)"
       style="font-style:normal;font-variant:normal;font-weight:normal;font-stretch:normal;font-size:40px;line-height:1.25;font-family:'Luckiest Guy';-inkscape-font-specification:'Luckiest Guy';letter-spacing:0px;word-spacing:0px;fill:#000000;fill-opacity:1;stroke:none"
       id="flowRoot7824">
      <path
         d="m 583.33333,325.78125 -71.61458,99.99999 -3.38542,81.51042 h -61.71875 l 1.5625,-80.98958 -37.23958,-96.61458 66.40625,-8.33333 10.41666,56.24999 33.07292,-56.24999 z"
         style="font-size:266.66665649px"
         id="path7832" />
      <path
         d="m 727.47395,402.34375 q 0,11.84895 -2.73438,22.91666 -2.73437,10.9375 -7.94271,20.57292 -5.07812,9.63541 -12.5,17.70833 -7.29166,7.94271 -16.53645,13.67187 -9.11459,5.72917 -19.92188,8.98438 -10.80729,3.125 -22.91666,3.125 -11.71875,0 -22.39584,-2.99479 -10.54687,-2.99479 -19.79166,-8.33334 -9.24479,-5.46875 -16.79688,-13.02083 -7.42187,-7.68229 -12.76041,-16.92708 -5.20834,-9.375 -8.20313,-20.05208 -2.86458,-10.67709 -2.86458,-22.26563 0,-11.32812 2.73437,-22.13541 2.73438,-10.9375 7.8125,-20.57292 5.20834,-9.63542 12.5,-17.70833 7.29167,-8.07292 16.27604,-13.93229 9.11459,-5.85938 19.66146,-9.11459 10.54688,-3.2552 22.26563,-3.2552 18.8802,0 34.375,5.85937 15.62499,5.85937 26.56249,16.79687 11.06771,10.8073 17.0573,26.30209 6.11979,15.36458 6.11979,34.375 z m -57.8125,3.38541 q 0,-5.59896 -1.69271,-10.80729 -1.5625,-5.33854 -4.6875,-9.375 -3.125,-4.16667 -7.8125,-6.64062 -4.55729,-2.60417 -10.54687,-2.60417 -6.11979,0 -10.9375,2.21354 -4.81771,2.21354 -8.33334,6.11979 -3.38541,3.77604 -5.20833,8.98438 -1.82292,5.07812 -1.82292,10.80729 0,5.46875 1.5625,10.9375 1.5625,5.46875 4.6875,9.89583 3.125,4.42708 7.6823,7.16146 4.6875,2.73437 10.80729,2.73437 6.11979,0 10.9375,-2.34375 4.94791,-2.47395 8.33333,-6.51041 3.38542,-4.16667 5.20833,-9.50521 1.82292,-5.33854 1.82292,-11.06771 z"
         style="font-size:266.66665649px"
         id="path7834" />
      <path
         d="m 892.05727,318.75 q -5.85938,45.83333 -10.02605,91.27604 -4.16666,45.3125 -7.9427,91.27603 l -53.38542,3.90625 2.34375,-20.05208 q -2.60417,2.99479 -6.11979,5.20834 -3.38542,2.21354 -7.29167,3.64583 -3.90625,1.30208 -8.07291,1.95312 -4.16667,0.52084 -7.94271,0.39063 -8.85417,-0.13021 -16.66667,-3.38542 -7.8125,-3.38541 -14.32291,-8.85416 -6.51042,-5.59896 -11.71875,-12.89063 -5.20834,-7.42187 -8.85417,-15.49479 -3.51562,-8.20312 -5.46875,-16.66667 -1.82292,-8.46354 -1.82292,-16.40625 0,-11.71874 0.39063,-24.21874 0.52083,-12.63021 1.69271,-25.26042 1.17187,-12.63021 2.99479,-25 1.95312,-12.36979 4.81771,-23.69791 15.88541,0.78124 31.90104,1.43229 16.01562,0.65104 31.90104,0.39062 -2.99479,11.32813 -5.98958,22.78646 -2.86459,11.32812 -5.20834,22.91666 -2.34375,11.45834 -3.77604,23.04688 -1.43229,11.58854 -1.43229,23.4375 0,2.73437 0.26042,7.8125 0.26041,5.07812 1.30208,10.02604 1.17187,4.94792 3.38542,8.72396 2.34375,3.64583 6.51041,3.64583 4.94792,0 8.85417,-4.16667 3.90625,-4.29687 6.90104,-11.45833 2.99479,-7.16146 5.07812,-16.53646 2.21355,-9.375 3.64584,-19.53125 1.5625,-10.28645 2.47396,-20.70312 0.91145,-10.41667 1.30208,-19.53125 0.52083,-9.24479 0.65104,-16.53646 0.26042,-7.29166 0.26042,-11.32812 0,-2.60417 -0.13021,-5.07813 -0.13021,-2.47395 -0.39063,-5.07812 8.46355,0.26042 16.79688,0.39062 8.33333,0.13021 16.79687,0.13021 6.51042,0 13.02084,0 6.64062,-0.13021 13.28125,-0.52083 z"
         style="font-size:266.66665649px"
         id="path7836" />
      <path
         d="m 1186.8489,321.35417 -30.4687,180.46874 -73.9583,1.5625 -15.8854,-93.48958 -15.8855,86.71875 -73.95829,2.60416 -30.72917,-177.86457 64.58336,-5.72917 13.0208,108.07291 17.4479,-108.07291 h 50.7813 l 20.3125,109.37499 10.4166,-109.37499 z"
         style="font-size:266.66665649px"
         id="path7838" />
      <path
         d="m 1350.3906,410.15625 q 0,11.84895 -2.7344,22.91666 -2.7343,10.9375 -7.9427,20.57292 -5.0781,9.63541 -12.5,17.70833 -7.2916,7.94271 -16.5364,13.67187 -9.1146,5.72917 -19.9219,8.98438 -10.8073,3.125 -22.9167,3.125 -11.7187,0 -22.3958,-2.99479 -10.5469,-2.99479 -19.7917,-8.33334 -9.2448,-5.46875 -16.7968,-13.02083 -7.4219,-7.68229 -12.7605,-16.92708 -5.2083,-9.375 -8.2031,-20.05208 -2.8646,-10.67709 -2.8646,-22.26563 0,-11.32812 2.7344,-22.13541 2.7344,-10.9375 7.8125,-20.57292 5.2083,-9.63542 12.5,-17.70833 7.2917,-8.07292 16.2761,-13.93229 9.1145,-5.85938 19.6614,-9.11459 10.5469,-3.25521 22.2656,-3.25521 18.8802,0 34.375,5.85938 15.625,5.85937 26.5625,16.79687 11.0677,10.8073 17.0573,26.30209 6.1198,15.36458 6.1198,34.375 z m -57.8125,3.38541 q 0,-5.59896 -1.6927,-10.80729 -1.5625,-5.33854 -4.6875,-9.375 -3.125,-4.16667 -7.8125,-6.64062 -4.5573,-2.60417 -10.5469,-2.60417 -6.1198,0 -10.9375,2.21354 -4.8177,2.21354 -8.3333,6.11979 -3.3854,3.77604 -5.2083,8.98438 -1.8229,5.07812 -1.8229,10.80729 0,5.46875 1.5625,10.9375 1.5625,5.46875 4.6875,9.89583 3.125,4.42708 7.6822,7.16146 4.6875,2.73437 10.8073,2.73437 6.1198,0 10.9375,-2.34375 4.948,-2.47395 8.3334,-6.51041 3.3854,-4.16667 5.2083,-9.50521 1.8229,-5.33854 1.8229,-11.06771 z"
         style="font-size:266.66665649px"
         id="path7840" />
      <path
         d="m 1536.849,315.36458 -9.375,176.5625 -68.2292,6.25 -36.4583,-94.53125 -5.7292,96.35416 h -58.5938 l 4.6875,-184.63541 65.1042,-3.125 45.0521,93.75 2.0833,-88.54166 z"
         style="font-size:266.66665649px"
         id="path7842" />
      <path
         d="m 1611.0677,308.59375 -10.6771,136.97916 h -48.1771 l -4.9479,-136.97916 z m -8.5937,177.08333 q 0,5.72916 -2.2136,10.67708 -2.2135,4.94791 -5.9896,8.59375 -3.6458,3.77604 -8.5937,5.85937 -4.9479,2.21354 -10.5469,2.21354 -5.7292,0 -10.6771,-2.21354 -4.9479,-2.08333 -8.7239,-5.85937 -3.6459,-3.64584 -5.8594,-8.59375 -2.0833,-4.94792 -2.0833,-10.67708 0,-5.59896 2.0833,-10.67709 2.2135,-5.07812 5.8594,-8.72396 3.776,-3.77604 8.7239,-5.98958 4.9479,-2.21354 10.6771,-2.21354 5.599,0 10.5469,2.21354 4.9479,2.21354 8.5937,5.98958 3.7761,3.64584 5.9896,8.72396 2.2136,5.07813 2.2136,10.67709 z"
         style="font-size:266.66665649px"
         id="path7844" />
    </g>
  </g>
</svg>
