<?xml version="1.0" encoding="UTF-8" standalone="no"?>
<!-- Created with Inkscape (http://www.inkscape.org/) -->

<svg
   xmlns:dc="http://purl.org/dc/elements/1.1/"
   xmlns:cc="http://creativecommons.org/ns#"
   xmlns:rdf="http://www.w3.org/1999/02/22-rdf-syntax-ns#"
   xmlns:svg="http://www.w3.org/2000/svg"
   xmlns="http://www.w3.org/2000/svg"
   xmlns:sodipodi="http://sodipodi.sourceforge.net/DTD/sodipodi-0.dtd"
   xmlns:inkscape="http://www.inkscape.org/namespaces/inkscape"
   width="256"
   height="256"
   viewBox="0 0 67.733332 67.733338"
   version="1.1"
   id="svg8"
   inkscape:version="0.92.3 (2405546, 2018-03-11)"
   sodipodi:docname="Icon_Ico.svg"
   inkscape:export-filename="C:\Users\Benjamin Wall\Documents\Godot\Projects\LD47\vector\Icon.png"
   inkscape:export-xdpi="96"
   inkscape:export-ydpi="96">
  <defs
     id="defs2" />
  <sodipodi:namedview
     id="base"
     pagecolor="#ffffff"
     bordercolor="#666666"
     borderopacity="1.0"
     inkscape:pageopacity="0.0"
     inkscape:pageshadow="2"
     inkscape:zoom="1.8101934"
     inkscape:cx="68.658211"
     inkscape:cy="105.42321"
     inkscape:document-units="mm"
     inkscape:current-layer="layer3"
     showgrid="false"
     units="px"
     inkscape:window-width="1536"
     inkscape:window-height="811"
     inkscape:window-x="-8"
     inkscape:window-y="-8"
     inkscape:window-maximized="1"
     inkscape:snap-others="false"
     inkscape:object-nodes="false"
     inkscape:snap-nodes="false"
     inkscape:snap-global="false"
     inkscape:pagecheckerboard="true" />
  <metadata
     id="metadata5">
    <rdf:RDF>
      <cc:Work
         rdf:about="">
        <dc:format>image/svg+xml</dc:format>
        <dc:type
           rdf:resource="http://purl.org/dc/dcmitype/StillImage" />
        <dc:title></dc:title>
      </cc:Work>
    </rdf:RDF>
  </metadata>
  <g
     inkscape:groupmode="layer"
     id="layer3"
     inkscape:label="BG"
     transform="translate(0,-91.016663)">
    <rect
       style="opacity:1;fill:#f2e4a8;fill-opacity:1;fill-rule:evenodd;stroke:none;stroke-width:1.05833316;stroke-miterlimit:4;stroke-dasharray:none;stroke-dashoffset:0;stroke-opacity:1"
       id="rect3932"
       width="424.1604"
       height="319.98065"
       x="340.23764"
       y="-139.77486" />
    <path
       style="opacity:1;fill:#f0d977;fill-opacity:1;fill-rule:evenodd;stroke:none;stroke-width:1.05833316;stroke-miterlimit:4;stroke-dasharray:none;stroke-dashoffset:0;stroke-opacity:1"
       d="M 164.61583,-2.9821008 C 199.43126,48.33133 260.53842,88.37687 327.79384,125.78748 407.10776,87.99575 482.02959,54.79623 565.73558,-36.698461 489.20259,-58.167204 427.11772,-76.023917 357.80879,-95.686644 292.53517,-66.662189 220.18406,-52.803805 164.61583,-2.9821008 Z"
       id="path3934"
       inkscape:connector-curvature="0"
       sodipodi:nodetypes="ccccc" />
    <path
       sodipodi:nodetypes="ccccc"
       inkscape:connector-curvature="0"
       id="path3936"
       d="M 332.87934,99.220618 C 366.77465,142.95081 420.86899,171.88408 480.31061,213.45503 546.67103,171.26754 612.05631,151.04029 693.07341,69.839361 622.00641,50.014161 574.87936,37.032381 510.52049,18.87493 449.90873,45.677422 384.47889,53.213007 332.87934,99.220618 Z"
       style="opacity:1;fill:#ffec98;fill-opacity:1;fill-rule:evenodd;stroke:none;stroke-width:1.05833316;stroke-miterlimit:4;stroke-dasharray:none;stroke-dashoffset:0;stroke-opacity:1" />
    <g
       style="stroke-width:1.83754754"
       id="g3889"
       transform="matrix(0.54420364,0,0,0.54420364,-117.56911,75.347486)">
      <path
         sodipodi:nodetypes="ccccccc"
         inkscape:connector-curvature="0"
         id="path3823"
         d="m 221.29081,118.84749 3.18585,2.99362 54.40238,26.38515 V 82.745227 l -59.34219,-24.993876 0.7944,56.269799 z"
         style="opacity:1;fill:#a28254;fill-opacity:1;fill-rule:evenodd;stroke:none;stroke-width:1.94473743;stroke-miterlimit:4;stroke-dasharray:none;stroke-dashoffset:0;stroke-opacity:1" />
      <path
         sodipodi:nodetypes="ccccccc"
         inkscape:connector-curvature="0"
         id="path3825"
         d="m 278.91678,82.809894 56.63736,-25.218099 0.38436,58.805945 -1.62459,3.20577 -2.35885,3.05885 -53.4517,24.22631 z"
         style="opacity:1;fill:#96784d;fill-opacity:1;fill-rule:evenodd;stroke:none;stroke-width:1.94473743;stroke-miterlimit:4;stroke-dasharray:none;stroke-dashoffset:0;stroke-opacity:1" />
      <path
         sodipodi:nodetypes="ccccccc"
         inkscape:connector-curvature="0"
         id="path3827"
         d="m 219.69036,57.829625 59.77638,25.535719 55.60983,-24.968799 -50.51594,-22.846898 -5.09694,-0.453565 -5.31578,0.532353 z"
         style="opacity:1;fill:#a6865c;fill-opacity:1;fill-rule:evenodd;stroke:none;stroke-width:1.94473743;stroke-miterlimit:4;stroke-dasharray:none;stroke-dashoffset:0;stroke-opacity:1" />
      <path
         sodipodi:nodetypes="ccccc"
         inkscape:connector-curvature="0"
         id="path3829"
         d="m 247.78464,69.971212 54.90545,-26.410329 1.44478,0.801745 -54.98372,26.044922 z"
         style="opacity:1;fill:#907246;fill-opacity:1;fill-rule:evenodd;stroke:none;stroke-width:1.94473743;stroke-miterlimit:4;stroke-dasharray:none;stroke-dashoffset:0;stroke-opacity:1" />
      <path
         inkscape:connector-curvature="0"
         id="path3831"
         d="m 245.8462,46.789124 56.71125,26.893997 0.58465,29.524929 3.05983,6.16353 1.5503,-7.2347 2.89388,2.58382 1.34358,-3.61735 2.58382,5.89111 0.72347,-7.027991 0.31006,-32.866211 -59.09094,-24.696025 z"
         style="opacity:1;fill:#cabca8;fill-opacity:0.63333333;fill-rule:evenodd;stroke:none;stroke-width:1.94473743;stroke-miterlimit:4;stroke-dasharray:none;stroke-dashoffset:0;stroke-opacity:1" />
      <path
         inkscape:connector-curvature="0"
         id="path3833"
         d="m 303.79984,46.862205 c -0.25579,0.146163 -7.38123,3.83678 -7.38123,3.83678 l 12.6431,5.663817 7.49085,-4.421432 z"
         style="opacity:1;fill:#ffffff;fill-opacity:1;fill-rule:evenodd;stroke:none;stroke-width:1.94473743;stroke-miterlimit:4;stroke-dasharray:none;stroke-dashoffset:0;stroke-opacity:1" />
      <path
         sodipodi:nodetypes="ccccc"
         inkscape:connector-curvature="0"
         id="path3835"
         d="m 303.5083,47.799111 6.56936,2.919718 0.46509,-0.361735 -6.6921,-2.89388 z"
         style="opacity:1;fill:#4d4d4d;fill-opacity:1;fill-rule:evenodd;stroke:none;stroke-width:1.94473743;stroke-miterlimit:4;stroke-dasharray:none;stroke-dashoffset:0;stroke-opacity:1" />
      <path
         sodipodi:nodetypes="ccccc"
         inkscape:connector-curvature="0"
         id="path3837"
         d="m 303.1724,47.883085 6.59521,3.016612 -0.42633,0.271301 -6.54999,-3.023071 z"
         style="opacity:1;fill:#4d4d4d;fill-opacity:1;fill-rule:evenodd;stroke:none;stroke-width:1.94473743;stroke-miterlimit:4;stroke-dasharray:none;stroke-dashoffset:0;stroke-opacity:1" />
      <path
         sodipodi:nodetypes="ccccc"
         inkscape:connector-curvature="0"
         id="path3839"
         d="m 289.90226,46.8405 7.75837,-3.542747 -3.56567,-1.808675 -7.83513,3.886749 z"
         style="opacity:1;fill:#ffffff;fill-opacity:1;fill-rule:evenodd;stroke:none;stroke-width:1.94473743;stroke-miterlimit:4;stroke-dasharray:none;stroke-dashoffset:0;stroke-opacity:1" />
      <path
         inkscape:connector-curvature="0"
         id="path3841"
         d="m 292.69145,40.979144 c -0.21925,0.109622 -2.19245,1.132763 -2.19245,1.132763 l -4.60413,-2.155904 1.9732,-0.986601 5.04262,2.155905 z"
         style="opacity:1;fill:#ffffff;fill-opacity:1;fill-rule:evenodd;stroke:none;stroke-width:1.94473743;stroke-miterlimit:4;stroke-dasharray:none;stroke-dashoffset:0;stroke-opacity:1" />
      <path
         inkscape:connector-curvature="0"
         id="path3843"
         d="m 285.16405,40.32141 4.23873,2.155905 -3.80024,1.973201 -4.38489,-2.338609 z"
         style="opacity:1;fill:#ffffff;fill-opacity:1;fill-rule:evenodd;stroke:none;stroke-width:1.94473743;stroke-miterlimit:4;stroke-dasharray:none;stroke-dashoffset:0;stroke-opacity:1" />
    </g>
    <g
       style="stroke-width:0.4999997"
       id="g3726"
       transform="matrix(2.0000012,0,0,2.0000012,109.74342,-482.30629)" />
    <g
       transform="matrix(2.0000012,0,0,2.0000012,380.75195,-401.39218)"
       aria-label="super Box Bot's"
       style="font-style:normal;font-variant:normal;font-weight:normal;font-stretch:normal;font-size:10.58333302px;line-height:1.25;font-family:'Luckiest Guy';-inkscape-font-specification:'Luckiest Guy';letter-spacing:0px;word-spacing:0px;fill:#000000;fill-opacity:1;stroke:none;stroke-width:0.13229157"
       id="text3673">
      <path
         d="m 18.033074,150.32318 q 0,0.82596 -0.289388,1.42886 -0.283359,0.59686 -0.783759,0.98874 -0.494371,0.38585 -1.163581,0.57275 -0.663181,0.18086 -1.428853,0.18086 -0.295417,0 -0.651123,-0.0784 -0.349678,-0.0784 -0.711413,-0.19293 -0.361735,-0.12058 -0.699354,-0.25321 -0.33159,-0.13867 -0.590834,-0.25925 l 0.265273,-2.36333 q 0.512457,0.30747 1.133436,0.47025 0.627007,0.15676 1.229899,0.15676 0.114549,0 0.27733,-0.006 0.162781,-0.0121 0.307475,-0.0543 0.150723,-0.0482 0.253215,-0.13867 0.102491,-0.0904 0.102491,-0.25924 0,-0.11455 -0.07235,-0.19293 -0.07235,-0.0844 -0.186896,-0.13263 -0.11455,-0.0543 -0.259244,-0.0784 -0.144694,-0.0301 -0.283359,-0.0422 -0.138665,-0.0121 -0.259243,-0.0121 -0.120579,0 -0.192926,0 -0.518487,0 -0.94654,-0.16278 -0.422024,-0.16278 -0.729499,-0.4582 -0.301445,-0.30144 -0.470255,-0.72347 -0.16881,-0.42805 -0.16881,-0.94654 0,-0.71141 0.283359,-1.2721 0.289388,-0.56672 0.765673,-0.9586 0.482313,-0.39791 1.103292,-0.60892 0.620978,-0.21101 1.284159,-0.21101 0.295417,0 0.608921,0.0241 0.313503,0.0181 0.620978,0.0723 0.313504,0.0543 0.608921,0.13867 0.295417,0.0844 0.560689,0.21101 l -0.229099,2.44774 q -0.409966,-0.13866 -0.862135,-0.2291 -0.44614,-0.0965 -0.874193,-0.0965 -0.07838,0 -0.204983,0.006 -0.120579,0 -0.259244,0.0181 -0.132636,0.0121 -0.271301,0.0422 -0.138665,0.0301 -0.247186,0.0844 -0.10852,0.0482 -0.174838,0.13264 -0.06632,0.0844 -0.06029,0.19895 0.006,0.13264 0.09646,0.20499 0.09646,0.0723 0.241157,0.10852 0.150723,0.0301 0.325562,0.0301 0.180867,0 0.355706,-0.006 0.174838,-0.0121 0.325561,-0.0181 0.150723,-0.0121 0.247186,-0.006 0.482313,0.0301 0.868164,0.20498 0.385851,0.17484 0.651123,0.46423 0.271301,0.28938 0.409966,0.69332 0.144694,0.39791 0.144694,0.88022 z"
         style="font-size:12.34722233px;stroke-width:0.13229157"
         id="path3938"
         inkscape:connector-curvature="0" />
      <path
         d="m 25.599366,144.92127 q -0.271302,2.12218 -0.464227,4.22627 -0.192925,2.09807 -0.367764,4.22627 l -2.471856,0.18087 0.10852,-0.92845 q -0.120578,0.13866 -0.283359,0.24116 -0.156751,0.10249 -0.337619,0.16881 -0.180868,0.0603 -0.373793,0.0904 -0.192925,0.0241 -0.367764,0.0181 -0.409966,-0.006 -0.771701,-0.15676 -0.361735,-0.15675 -0.663181,-0.40996 -0.301446,-0.25925 -0.542603,-0.59686 -0.241156,-0.34365 -0.409966,-0.71745 -0.162781,-0.37982 -0.253215,-0.7717 -0.0844,-0.39188 -0.0844,-0.75964 0,-0.5426 0.01809,-1.12138 0.02412,-0.5848 0.07838,-1.16961 0.05426,-0.5848 0.138665,-1.15755 0.09043,-0.57275 0.22307,-1.09726 0.735528,0.0362 1.477085,0.0663 0.741557,0.0301 1.477085,0.0181 -0.138665,0.52452 -0.27733,1.05506 -0.132637,0.52452 -0.241157,1.06109 -0.108521,0.53054 -0.174839,1.06712 -0.06632,0.53657 -0.06632,1.0852 0,0.12661 0.01206,0.36174 0.01206,0.23513 0.06029,0.46423 0.05426,0.22909 0.156752,0.40393 0.108521,0.16881 0.301446,0.16881 0.229099,0 0.409966,-0.19292 0.180868,-0.19896 0.319533,-0.53055 0.138665,-0.33159 0.235128,-0.76567 0.102491,-0.43408 0.168809,-0.90434 0.07235,-0.47628 0.11455,-0.9586 0.0422,-0.48231 0.06029,-0.90433 0.02412,-0.42806 0.03014,-0.76568 0.01206,-0.33761 0.01206,-0.52451 0,-0.12058 -0.006,-0.23513 -0.006,-0.11455 -0.01809,-0.23513 0.391879,0.0121 0.77773,0.0181 0.385851,0.006 0.77773,0.006 0.301446,0 0.602892,0 0.307475,-0.006 0.61495,-0.0241 z"
         style="font-size:12.34722233px;stroke-width:0.13229157"
         id="path3940"
         inkscape:connector-curvature="0" />
      <path
         d="m 32.984789,147.85133 q 0,0.5848 -0.174839,1.03697 -0.174838,0.45217 -0.482313,0.79582 -0.301446,0.33762 -0.711412,0.57274 -0.409967,0.2291 -0.880222,0.37983 -0.464227,0.14469 -0.964627,0.21704 -0.5004,0.0663 -0.982714,0.0723 v 2.56832 h -2.809475 q 0,-0.68729 0,-1.33842 0.006,-0.65112 0.006,-1.29018 0.006,-0.6451 0.006,-1.29622 0.006,-0.65112 0.01206,-1.34445 0.01206,-0.73553 0.006,-1.47106 -0.006,-0.73552 0.03014,-1.48311 0.771702,-0.2291 1.543403,-0.34365 0.771701,-0.11455 1.591634,-0.11455 0.464227,0 0.928453,0.0784 0.464227,0.0724 0.886251,0.23513 0.428053,0.16278 0.789788,0.40996 0.367764,0.24116 0.633037,0.57878 0.265272,0.33762 0.415995,0.7717 0.156752,0.43408 0.156752,0.96463 z m -2.676839,0.20498 q 0,-0.39188 -0.241157,-0.60892 -0.235128,-0.22307 -0.61495,-0.22307 -0.126607,0 -0.265272,0.0241 -0.132636,0.0181 -0.253215,0.0482 l -0.07235,1.76044 q 0.08441,0.0121 0.162781,0.0121 0.07838,0 0.162781,0 0.217041,0 0.415995,-0.0724 0.204983,-0.0724 0.361735,-0.20498 0.156752,-0.13867 0.247186,-0.31953 0.09646,-0.1869 0.09646,-0.416 z"
         style="font-size:12.34722233px;stroke-width:0.13229157"
         id="path3942"
         inkscape:connector-curvature="0" />
      <path
         d="m 40.068766,148.53862 q 0,0.52452 -0.07235,1.04903 -1.030945,0.0663 -2.049832,0.21705 -1.018886,0.14469 -2.037773,0.28938 0.156751,0.43409 0.488342,0.69333 0.337619,0.25924 0.801846,0.25924 0.241156,0 0.524516,-0.0904 0.289388,-0.0904 0.572747,-0.22307 0.283359,-0.13867 0.542602,-0.29542 0.259244,-0.15675 0.44614,-0.28336 l -0.289388,2.73713 q -0.235128,0.18087 -0.512458,0.30748 -0.271301,0.1266 -0.566718,0.20498 -0.295417,0.0784 -0.596863,0.11455 -0.301446,0.0362 -0.590834,0.0362 -0.596863,0 -1.091234,-0.16278 -0.494371,-0.16278 -0.898308,-0.45217 -0.397909,-0.29541 -0.699355,-0.69332 -0.301446,-0.39791 -0.5004,-0.86817 -0.198954,-0.47025 -0.301446,-0.99477 -0.102491,-0.52451 -0.102491,-1.06109 0,-0.56069 0.102491,-1.12138 0.102492,-0.56069 0.307475,-1.07917 0.211012,-0.51849 0.524516,-0.9586 0.319532,-0.44614 0.741557,-0.77773 0.422024,-0.33159 0.952568,-0.51849 0.536574,-0.18689 1.181668,-0.18689 0.536574,0 0.976685,0.15072 0.44614,0.14469 0.789788,0.40997 0.349677,0.25924 0.602892,0.62097 0.259243,0.36174 0.422024,0.79582 0.16881,0.42805 0.247185,0.91037 0.0844,0.47628 0.0844,0.97065 z m -2.411567,-0.3135 q 0,-0.16881 -0.03617,-0.34365 -0.03617,-0.18087 -0.120578,-0.32556 -0.07838,-0.14469 -0.211012,-0.23513 -0.132637,-0.0965 -0.331591,-0.0965 -0.241157,0 -0.428053,0.13264 -0.180868,0.1266 -0.313504,0.32556 -0.132636,0.19292 -0.217041,0.42202 -0.0844,0.2291 -0.126607,0.42203 l 1.784559,-0.16881 z"
         style="font-size:12.34722233px;stroke-width:0.13229157"
         id="path3944"
         inkscape:connector-curvature="0" />
      <path
         d="m 47.520508,147.59811 q 0,0.47026 -0.0844,0.85611 -0.07838,0.37982 -0.253214,0.69935 -0.174839,0.31954 -0.452169,0.59084 -0.27733,0.2713 -0.66921,0.51848 l 1.434882,2.55626 -2.713012,0.53055 -0.928454,-2.56832 -0.747585,0.0241 -0.108521,2.50803 h -2.592434 q 0.03014,-1.3746 0.05426,-2.73713 0.03015,-1.36254 0.06632,-2.73713 0.01206,-0.69333 0.02412,-1.37459 0.01206,-0.68127 0.04823,-1.3746 0.422024,-0.15675 0.831991,-0.25924 0.409966,-0.10249 0.819932,-0.15675 0.415996,-0.0603 0.83802,-0.0784 0.428053,-0.0241 0.874193,-0.0241 0.687297,0 1.326362,0.19292 0.645094,0.1869 1.139465,0.56672 0.494371,0.37982 0.789788,0.94654 0.301446,0.56672 0.301446,1.32033 z m -2.700955,0.19293 q 0,-0.25322 -0.07235,-0.46423 -0.06632,-0.21101 -0.204983,-0.36173 -0.132636,-0.15676 -0.337619,-0.24116 -0.198955,-0.0904 -0.470256,-0.0904 -0.120578,0 -0.235128,0.0181 -0.114549,0.0121 -0.22307,0.0422 l -0.09646,2.24276 h 0.144694 q 0.259243,0 0.524516,-0.0663 0.271301,-0.0663 0.482313,-0.20498 0.217041,-0.13866 0.349677,-0.35571 0.138665,-0.21704 0.138665,-0.51848 z"
         style="font-size:12.34722233px;stroke-width:0.13229157"
         id="path3946"
         inkscape:connector-curvature="0" />
      <path
         d="m 57.359703,151.26369 q 0,0.5004 -0.186896,0.86214 -0.180868,0.36173 -0.488343,0.61495 -0.307474,0.25321 -0.711412,0.41599 -0.397908,0.15676 -0.83199,0.24719 -0.434082,0.0904 -0.874193,0.12058 -0.434082,0.0301 -0.813904,0.0301 -0.373793,0 -0.777731,-0.0301 -0.397908,-0.0241 -0.795817,-0.0904 -0.397908,-0.0663 -0.783759,-0.17483 -0.38585,-0.11455 -0.729499,-0.28336 l -0.01206,-7.76525 q 0.33762,-0.13866 0.717442,-0.24718 0.379821,-0.11455 0.771701,-0.1869 0.397908,-0.0784 0.789788,-0.11455 0.39188,-0.0422 0.759644,-0.0422 0.428053,0 0.862135,0.0543 0.440111,0.0543 0.844048,0.18086 0.403938,0.12661 0.753615,0.3316 0.349677,0.19895 0.60892,0.49437 0.265273,0.29541 0.409967,0.68729 0.150723,0.39188 0.150723,0.90434 0,0.33762 -0.09646,0.63304 -0.09646,0.29541 -0.27733,0.53054 -0.180868,0.23513 -0.440111,0.40394 -0.259243,0.16278 -0.584805,0.24116 0.39188,0.10249 0.711412,0.30144 0.325562,0.19896 0.548632,0.48232 0.229099,0.28335 0.349677,0.63906 0.126607,0.35571 0.126607,0.75964 z m -3.06269,-3.43648 q 0,-0.17484 -0.07235,-0.29542 -0.07235,-0.1266 -0.180867,-0.20498 -0.102492,-0.0784 -0.229099,-0.11455 -0.120579,-0.0362 -0.217041,-0.0362 -0.120579,0 -0.235128,0.0362 -0.114549,0.0362 -0.22307,0.0844 l -0.03617,1.33842 q 0.138665,0 0.343648,-0.0241 0.204983,-0.0241 0.39188,-0.10249 0.192925,-0.0844 0.325561,-0.24116 0.132636,-0.16278 0.132636,-0.44011 z m -0.856106,1.96543 q -0.174839,0 -0.337619,0.0362 l -0.02412,1.37459 q 0.09043,0.0181 0.174839,0.0362 0.09043,0.0121 0.174838,0.0121 0.126607,0 0.27733,-0.0241 0.150723,-0.0301 0.283359,-0.10852 0.132637,-0.0844 0.217041,-0.22307 0.09043,-0.13867 0.09043,-0.36776 0,-0.2291 -0.09043,-0.3738 -0.0844,-0.14469 -0.211012,-0.22307 -0.126607,-0.0844 -0.27733,-0.10852 -0.150723,-0.0301 -0.27733,-0.0301 z"
         style="font-size:12.34722233px;stroke-width:0.13229157"
         id="path3948"
         inkscape:connector-curvature="0" />
      <path
         d="m 64.980251,148.79184 q 0,0.54863 -0.126607,1.06109 -0.126607,0.50643 -0.367764,0.95257 -0.235128,0.44614 -0.578776,0.81993 -0.337619,0.36776 -0.765672,0.63304 -0.422025,0.26527 -0.922425,0.41599 -0.5004,0.14469 -1.061089,0.14469 -0.542603,0 -1.036974,-0.13866 -0.488342,-0.13867 -0.916395,-0.38585 -0.428053,-0.25322 -0.777731,-0.60289 -0.343648,-0.35571 -0.590833,-0.78376 -0.241157,-0.43408 -0.379822,-0.92846 -0.132636,-0.49437 -0.132636,-1.03094 0,-0.52452 0.126607,-1.02492 0.126607,-0.50643 0.361735,-0.95257 0.241157,-0.44613 0.578776,-0.81993 0.337619,-0.37379 0.753615,-0.64509 0.422024,-0.2713 0.910366,-0.42203 0.488342,-0.15072 1.030945,-0.15072 0.874193,0 1.591634,0.2713 0.72347,0.2713 1.229899,0.77773 0.512458,0.5004 0.789788,1.21784 0.283359,0.71142 0.283359,1.59164 z m -2.676839,0.15675 q 0,-0.25924 -0.07838,-0.5004 -0.07235,-0.24719 -0.217041,-0.43408 -0.144694,-0.19293 -0.361735,-0.30748 -0.211012,-0.12058 -0.488342,-0.12058 -0.283359,0 -0.506429,0.1025 -0.22307,0.10249 -0.385851,0.28336 -0.156752,0.17483 -0.241157,0.41599 -0.0844,0.23513 -0.0844,0.5004 0,0.25322 0.07235,0.50643 0.07235,0.25321 0.217041,0.4582 0.144694,0.20498 0.355706,0.33159 0.217041,0.1266 0.5004,0.1266 0.283359,0 0.506429,-0.10852 0.229099,-0.11454 0.385851,-0.30144 0.156751,-0.19293 0.241156,-0.44011 0.08441,-0.24719 0.08441,-0.51246 z"
         style="font-size:12.34722233px;stroke-width:0.13229157"
         id="path3950"
         inkscape:connector-curvature="0" />
      <path
         d="m 72.275244,145.1986 -2.351278,3.84645 2.122179,3.43649 -2.520088,0.78375 -1.205783,-2.33922 -1.27813,2.47186 -2.604493,-0.94051 2.218642,-3.49677 -2.025716,-3.43649 2.761244,-0.66318 0.988742,2.18247 1.049032,-2.18247 z"
         style="font-size:12.34722233px;stroke-width:0.13229157"
         id="path3952"
         inkscape:connector-curvature="0" />
      <path
         d="m 81.764759,151.26369 q 0,0.5004 -0.186896,0.86214 -0.180868,0.36173 -0.488343,0.61495 -0.307474,0.25321 -0.711412,0.41599 -0.397908,0.15676 -0.83199,0.24719 -0.434082,0.0904 -0.874193,0.12058 -0.434082,0.0301 -0.813904,0.0301 -0.373793,0 -0.777731,-0.0301 -0.397908,-0.0241 -0.795817,-0.0904 -0.397908,-0.0663 -0.783759,-0.17483 -0.38585,-0.11455 -0.729499,-0.28336 l -0.01206,-7.76525 q 0.33762,-0.13866 0.717442,-0.24718 0.379821,-0.11455 0.771701,-0.1869 0.397908,-0.0784 0.789788,-0.11455 0.39188,-0.0422 0.759644,-0.0422 0.428053,0 0.862135,0.0543 0.440111,0.0543 0.844048,0.18086 0.403938,0.12661 0.753615,0.3316 0.349677,0.19895 0.60892,0.49437 0.265273,0.29541 0.409967,0.68729 0.150723,0.39188 0.150723,0.90434 0,0.33762 -0.09646,0.63304 -0.09646,0.29541 -0.27733,0.53054 -0.180868,0.23513 -0.440111,0.40394 -0.259243,0.16278 -0.584805,0.24116 0.39188,0.10249 0.711412,0.30144 0.325562,0.19896 0.548632,0.48232 0.229099,0.28335 0.349677,0.63906 0.126607,0.35571 0.126607,0.75964 z m -3.06269,-3.43648 q 0,-0.17484 -0.07235,-0.29542 -0.07235,-0.1266 -0.180867,-0.20498 -0.102492,-0.0784 -0.229099,-0.11455 -0.120579,-0.0362 -0.217041,-0.0362 -0.120579,0 -0.235128,0.0362 -0.114549,0.0362 -0.22307,0.0844 l -0.03617,1.33842 q 0.138665,0 0.343648,-0.0241 0.204983,-0.0241 0.39188,-0.10249 0.192925,-0.0844 0.325561,-0.24116 0.132636,-0.16278 0.132636,-0.44011 z m -0.856106,1.96543 q -0.174839,0 -0.337619,0.0362 l -0.02412,1.37459 q 0.09043,0.0181 0.174839,0.0362 0.09043,0.0121 0.174838,0.0121 0.126607,0 0.27733,-0.0241 0.150723,-0.0301 0.283359,-0.10852 0.132637,-0.0844 0.217041,-0.22307 0.09043,-0.13867 0.09043,-0.36776 0,-0.2291 -0.09043,-0.3738 -0.0844,-0.14469 -0.211012,-0.22307 -0.126607,-0.0844 -0.27733,-0.10852 -0.150723,-0.0301 -0.27733,-0.0301 z"
         style="font-size:12.34722233px;stroke-width:0.13229157"
         id="path3954"
         inkscape:connector-curvature="0" />
      <path
         d="m 89.385307,148.79184 q 0,0.54863 -0.126607,1.06109 -0.126607,0.50643 -0.367764,0.95257 -0.235128,0.44614 -0.578776,0.81993 -0.337619,0.36776 -0.765672,0.63304 -0.422025,0.26527 -0.922425,0.41599 -0.5004,0.14469 -1.061089,0.14469 -0.542603,0 -1.036974,-0.13866 -0.488342,-0.13867 -0.916395,-0.38585 -0.428053,-0.25322 -0.777731,-0.60289 -0.343648,-0.35571 -0.590833,-0.78376 -0.241157,-0.43408 -0.379822,-0.92846 -0.132636,-0.49437 -0.132636,-1.03094 0,-0.52452 0.126607,-1.02492 0.126607,-0.50643 0.361735,-0.95257 0.241157,-0.44613 0.578776,-0.81993 0.337619,-0.37379 0.753615,-0.64509 0.422024,-0.2713 0.910366,-0.42203 0.488342,-0.15072 1.030945,-0.15072 0.874193,0 1.591634,0.2713 0.72347,0.2713 1.229899,0.77773 0.512458,0.5004 0.789788,1.21784 0.283359,0.71142 0.283359,1.59164 z m -2.676839,0.15675 q 0,-0.25924 -0.07838,-0.5004 -0.07235,-0.24719 -0.217041,-0.43408 -0.144694,-0.19293 -0.361735,-0.30748 -0.211012,-0.12058 -0.488342,-0.12058 -0.283359,0 -0.506429,0.1025 -0.22307,0.10249 -0.385851,0.28336 -0.156752,0.17483 -0.241157,0.41599 -0.0844,0.23513 -0.0844,0.5004 0,0.25322 0.07235,0.50643 0.07235,0.25321 0.217041,0.4582 0.144694,0.20498 0.355706,0.33159 0.217041,0.1266 0.5004,0.1266 0.283359,0 0.506429,-0.10852 0.229099,-0.11454 0.385851,-0.30144 0.156751,-0.19293 0.241156,-0.44011 0.0844,-0.24719 0.0844,-0.51246 z"
         style="font-size:12.34722233px;stroke-width:0.13229157"
         id="path3956"
         inkscape:connector-curvature="0" />
      <path
         d="m 96.204015,144.90922 -0.06029,2.55626 -1.796617,0.0723 -0.217041,5.59484 -2.544203,0.13263 -0.229099,-5.59483 -1.796618,0.0965 0.07235,-2.84565 z"
         style="font-size:12.34722233px;stroke-width:0.13229157"
         id="path3958"
         inkscape:connector-curvature="0" />
      <path
         d="m 99.218474,143.66726 -0.675239,3.66558 -1.856907,0.0603 -0.373792,-3.66558 z"
         style="font-size:12.34722233px;stroke-width:0.13229157"
         id="path3960"
         inkscape:connector-curvature="0" />
      <path
         d="m 104.67034,150.76416 q 0,0.70796 -0.24805,1.22473 -0.24288,0.51159 -0.67179,0.84749 -0.42375,0.33073 -0.99736,0.49093 -0.56844,0.15503 -1.22473,0.15503 -0.25321,0 -0.5581,-0.0672 -0.29973,-0.0672 -0.60979,-0.16537 -0.31005,-0.10335 -0.599442,-0.21704 -0.284221,-0.11886 -0.506429,-0.22221 l 0.227376,-2.02571 q 0.43925,0.26355 0.971515,0.40307 0.53744,0.13436 1.0542,0.13436 0.0982,0 0.23771,-0.005 0.13953,-0.0103 0.26355,-0.0465 0.12919,-0.0413 0.21704,-0.11885 0.0879,-0.0775 0.0879,-0.22221 0,-0.0982 -0.062,-0.16536 -0.062,-0.0724 -0.1602,-0.11369 -0.0982,-0.0465 -0.2222,-0.0672 -0.12403,-0.0258 -0.24288,-0.0362 -0.11886,-0.0103 -0.22221,-0.0103 -0.10335,0 -0.16537,0 -0.44441,0 -0.81132,-0.13953 -0.36173,-0.13952 -0.625281,-0.39274 -0.258382,-0.25838 -0.403076,-0.62012 -0.144694,-0.3669 -0.144694,-0.81132 0,-0.60978 0.242879,-1.09037 0.248047,-0.48576 0.656292,-0.82165 0.41341,-0.34107 0.94568,-0.52194 0.53226,-0.18086 1.10071,-0.18086 0.25321,0 0.52193,0.0207 0.26871,0.0155 0.53226,0.062 0.26872,0.0465 0.52194,0.11886 0.25321,0.0723 0.48059,0.18086 l -0.19637,2.09807 q -0.3514,-0.11886 -0.73898,-0.19637 -0.3824,-0.0827 -0.7493,-0.0827 -0.0672,0 -0.1757,0.005 -0.10336,0 -0.22221,0.0155 -0.11369,0.0103 -0.23255,0.0362 -0.11885,0.0258 -0.21187,0.0723 -0.093,0.0413 -0.14986,0.11369 -0.0568,0.0724 -0.0517,0.17053 0.005,0.11369 0.0827,0.1757 0.0827,0.062 0.20671,0.093 0.12919,0.0258 0.27905,0.0258 0.15503,0 0.30489,-0.005 0.14987,-0.0103 0.27906,-0.0155 0.12919,-0.0103 0.21187,-0.005 0.41341,0.0258 0.74414,0.1757 0.33073,0.14986 0.55811,0.39791 0.23254,0.24805 0.3514,0.59428 0.12402,0.34106 0.12402,0.75448 z"
         style="stroke-width:0.13229157"
         id="path3962"
         inkscape:connector-curvature="0" />
    </g>
    <g
       transform="matrix(2.0000012,0,0,2.0000012,336.10352,-439.42603)"
       aria-label="PACKAGE PUSH"
       style="font-style:normal;font-variant:normal;font-weight:normal;font-stretch:normal;font-size:10.58333302px;line-height:1.25;font-family:'Luckiest Guy';-inkscape-font-specification:'Luckiest Guy';letter-spacing:0px;word-spacing:0px;fill:#000000;fill-opacity:1;stroke:none;stroke-width:0.13229157"
       id="text3677">
      <path
         d="m 51.957206,163.91359 q 0,1.16961 -0.349677,2.07395 -0.349677,0.90434 -0.964627,1.57958 -0.602891,0.67524 -1.422824,1.14549 -0.819933,0.47026 -1.760444,0.7717 -0.928453,0.28939 -1.929253,0.43408 -1.000801,0.13264 -1.965427,0.1447 v 5.61895 h -5.618951 q 0,-2.76125 0.01206,-5.49837 0.01206,-2.73713 0.03617,-5.52249 0.02412,-1.47106 0.01206,-2.94211 -0.01206,-1.47106 0.06029,-2.96623 1.543403,-0.4582 3.086806,-0.6873 1.543403,-0.2291 3.183268,-0.2291 0.928453,0 1.856907,0.15676 0.928453,0.14469 1.772501,0.47025 0.856107,0.32556 1.579577,0.81993 0.735527,0.48232 1.266072,1.15756 0.530545,0.67524 0.831991,1.5434 0.313503,0.85611 0.313503,1.92925 z m -5.353678,0.40997 q 0,-0.78376 -0.482313,-1.21784 -0.470256,-0.44614 -1.229899,-0.44614 -0.253215,0 -0.530545,0.0482 -0.265273,0.0362 -0.506429,0.0965 l -0.144694,3.52089 q 0.168809,0.0241 0.325561,0.0241 0.156752,0 0.325562,0 0.434082,0 0.83199,-0.1447 0.409967,-0.14469 0.72347,-0.40997 0.313504,-0.27733 0.494372,-0.63906 0.192925,-0.37379 0.192925,-0.83199 z"
         style="font-size:24.69444466px;stroke-width:0.13229157"
         id="path3965"
         inkscape:connector-curvature="0" />
      <path
         d="m 66.571301,174.47626 -5.980685,0.7717 -0.72347,-2.72507 h -2.749187 l -0.602891,2.72507 -6.149496,-0.60289 4.799018,-16.06104 6.704156,-0.33762 z m -7.138237,-5.64307 -0.916396,-4.19613 -0.89228,4.19613 z"
         style="font-size:24.69444466px;stroke-width:0.13229157"
         id="path3967"
         inkscape:connector-curvature="0" />
      <path
         d="m 78.508557,158.55991 -0.675238,5.08841 q -0.349678,-0.0965 -0.699355,-0.13264 -0.349677,-0.0362 -0.699354,-0.0362 -0.89228,0 -1.700155,0.24116 -0.807875,0.2291 -1.434882,0.71141 -0.61495,0.48231 -0.988743,1.20578 -0.361735,0.72347 -0.361735,1.70016 0,0.62701 0.192926,1.0852 0.204983,0.4582 0.566718,0.75965 0.361735,0.30144 0.856106,0.44614 0.494371,0.14469 1.085205,0.14469 0.44614,0 0.928454,-0.0965 0.482313,-0.0965 0.952568,-0.25322 0.470256,-0.15675 0.916396,-0.36173 0.44614,-0.20499 0.819933,-0.42203 l -0.482314,5.66719 q -0.470255,0.24115 -1.024916,0.43408 -0.542602,0.18087 -1.121378,0.32556 -0.578776,0.13264 -1.157552,0.20498 -0.578776,0.0724 -1.109321,0.0724 -1.531345,0 -2.857707,-0.56672 -1.326362,-0.56672 -2.303046,-1.55546 -0.976685,-0.98874 -1.543403,-2.32716 -0.55466,-1.35048 -0.55466,-2.90594 0,-2.06189 0.590834,-3.88262 0.590833,-1.83279 1.736328,-3.20739 1.145494,-1.37459 2.833591,-2.17041 1.700154,-0.79581 3.906738,-0.79581 0.831991,0 1.700155,0.13263 0.880222,0.13264 1.627807,0.49437 z"
         style="font-size:24.69444466px;stroke-width:0.13229157"
         id="path3969"
         inkscape:connector-curvature="0" />
      <path
         d="m 94.581652,158.24641 -5.811877,8.03052 4.895481,8.53694 -5.594835,0.98875 -3.665582,-5.20899 -0.192925,5.45014 -5.016059,0.19293 0.385851,-18.4726 5.618951,0.3135 -0.434083,5.45014 3.737929,-5.76364 z"
         style="font-size:24.69444466px;stroke-width:0.13229157"
         id="path3971"
         inkscape:connector-curvature="0" />
      <path
         d="m 109.69012,174.47626 -5.98069,0.7717 -0.72347,-2.72507 h -2.74918 l -0.602896,2.72507 -6.149495,-0.60289 4.799018,-16.06104 6.704153,-0.33762 z m -7.13824,-5.64307 -0.9164,-4.19613 -0.89228,4.19613 z"
         style="font-size:24.69444466px;stroke-width:0.13229157"
         id="path3973"
         inkscape:connector-curvature="0" />
      <path
         d="m 124.23186,173.05343 q -0.56672,0.71141 -1.39871,1.24196 -0.83199,0.53054 -1.78456,0.88022 -0.95257,0.34968 -1.95337,0.51849 -1.0008,0.18086 -1.90513,0.18086 -1.74839,0 -3.21944,-0.627 -1.47106,-0.62701 -2.54421,-1.72427 -1.06109,-1.10932 -1.66398,-2.6045 -0.60289,-1.49517 -0.60289,-3.21944 0,-1.3143 0.30145,-2.56832 0.30144,-1.26607 0.8561,-2.37539 0.56672,-1.12138 1.37459,-2.04983 0.80788,-0.94051 1.8328,-1.61575 1.02491,-0.67524 2.24275,-1.04903 1.21784,-0.3738 2.60449,-0.3738 0.51849,0 1.10933,0.0482 0.59083,0.0362 1.16961,0.14469 0.59083,0.0965 1.14549,0.27733 0.55466,0.18087 1.01286,0.44614 l -0.33762,4.60609 q -0.67524,-0.25321 -1.39871,-0.33762 -0.71141,-0.0965 -1.39871,-0.0965 -0.96463,0 -1.80867,0.30145 -0.83199,0.28938 -1.459,0.84404 -0.61495,0.55467 -0.97669,1.35048 -0.36173,0.79582 -0.36173,1.79662 0,0.62701 0.16881,1.21784 0.16881,0.57878 0.50643,1.03697 0.34967,0.44614 0.8561,0.72347 0.51849,0.27733 1.19373,0.27733 0.4582,0 0.94051,-0.12057 0.49437,-0.12058 0.84405,-0.40997 l 0.0482,-0.94051 -2.89388,-0.0482 0.14469,-3.61735 q 1.79662,-0.0603 3.59324,-0.0965 1.79662,-0.0482 3.61735,-0.12057 z"
         style="font-size:24.69444466px;stroke-width:0.13229157"
         id="path3975"
         inkscape:connector-curvature="0" />
      <path
         d="m 136.57909,158.12583 q -0.0724,1.13344 -0.13264,2.24276 -0.0603,1.10932 -0.15675,2.24276 l -5.11252,0.26527 -0.12058,1.51929 h 3.59323 l -0.26527,3.73792 -3.61735,0.12058 -0.12058,1.76045 h 2.99035 2.12217 q -0.0723,1.32636 -0.15675,2.64066 -0.0723,1.30225 -0.13263,2.61655 l -10.39386,0.24116 0.38585,-17.3874 z"
         style="font-size:24.69444466px;stroke-width:0.13229157"
         id="path3977"
         inkscape:connector-curvature="0" />
      <path
         d="m 155.8475,163.91359 q 0,1.16961 -0.34967,2.07395 -0.34968,0.90434 -0.96463,1.57958 -0.60289,0.67524 -1.42283,1.14549 -0.81993,0.47026 -1.76044,0.7717 -0.92845,0.28939 -1.92925,0.43408 -1.0008,0.13264 -1.96543,0.1447 v 5.61895 h -5.61895 q 0,-2.76125 0.0121,-5.49837 0.0121,-2.73713 0.0362,-5.52249 0.0241,-1.47106 0.0121,-2.94211 -0.0121,-1.47106 0.0603,-2.96623 1.5434,-0.4582 3.0868,-0.6873 1.54341,-0.2291 3.18327,-0.2291 0.92846,0 1.85691,0.15676 0.92845,0.14469 1.7725,0.47025 0.85611,0.32556 1.57958,0.81993 0.73552,0.48232 1.26607,1.15756 0.53054,0.67524 0.83199,1.5434 0.3135,0.85611 0.3135,1.92925 z m -5.35368,0.40997 q 0,-0.78376 -0.48231,-1.21784 -0.47025,-0.44614 -1.2299,-0.44614 -0.25321,0 -0.53054,0.0482 -0.26527,0.0362 -0.50643,0.0965 l -0.1447,3.52089 q 0.16881,0.0241 0.32557,0.0241 0.15675,0 0.32556,0 0.43408,0 0.83199,-0.1447 0.40996,-0.14469 0.72347,-0.40997 0.3135,-0.27733 0.49437,-0.63906 0.19292,-0.37379 0.19292,-0.83199 z"
         style="font-size:24.69444466px;stroke-width:0.13229157"
         id="path3979"
         inkscape:connector-curvature="0" />
      <path
         d="m 170.93186,162.10492 q 0,0.89228 -0.0844,1.96542 -0.0844,1.07315 -0.27734,2.21865 -0.19292,1.14549 -0.50642,2.32716 -0.30145,1.16961 -0.75965,2.25481 -0.4582,1.08521 -1.07314,2.03778 -0.6029,0.94051 -1.39871,1.65192 -0.78376,0.69935 -1.76045,1.09726 -0.97668,0.40997 -2.17041,0.40997 -1.39871,0 -2.43568,-0.4582 -1.02492,-0.44614 -1.76044,-1.20578 -0.73553,-0.7717 -1.20579,-1.78456 -0.47025,-1.02492 -0.73553,-2.15835 -0.26527,-1.1455 -0.37379,-2.32717 -0.0965,-1.19372 -0.0965,-2.29098 0,-1.6881 0.16881,-3.36414 0.16881,-1.6881 0.48231,-3.36414 l 5.64307,0.21705 q -0.32556,1.89308 -0.56672,3.81027 -0.2291,1.90514 -0.2291,3.83439 0,0.20499 0.0121,0.61495 0.0241,0.39791 0.0724,0.90434 0.0482,0.49437 0.13263,1.02492 0.0965,0.51848 0.25322,0.95256 0.15675,0.43409 0.37379,0.71142 0.2291,0.27733 0.53054,0.27733 0.34968,0 0.62701,-0.32556 0.27733,-0.33762 0.48232,-0.89228 0.21704,-0.55466 0.37379,-1.27813 0.15675,-0.72347 0.26527,-1.50723 0.10852,-0.78376 0.16881,-1.56752 0.0724,-0.78376 0.10852,-1.459 0.0482,-0.67524 0.0603,-1.19373 0.0121,-0.51848 0.0121,-0.7717 0,-0.94051 -0.0362,-1.86896 -0.0241,-0.94051 -0.0844,-1.86897 h 5.64307 q 0.14469,1.66399 0.14469,3.3762 z"
         style="font-size:24.69444466px;stroke-width:0.13229157"
         id="path3981"
         inkscape:connector-curvature="0" />
      <path
         d="m 184.2437,169.09846 q 0,1.65192 -0.57878,2.89388 -0.56671,1.2299 -1.56751,2.04983 -0.98875,0.81994 -2.32717,1.2299 -1.32636,0.40997 -2.8577,0.40997 -0.59084,0 -1.30225,-0.15675 -0.69935,-0.15675 -1.42282,-0.38585 -0.72347,-0.24116 -1.39871,-0.50643 -0.66318,-0.27733 -1.18167,-0.51849 l 0.53054,-4.96783 q 1.02492,0.61495 2.26688,0.94051 1.25401,0.31351 2.4598,0.31351 0.22909,0 0.55466,-0.0121 0.32556,-0.0241 0.61495,-0.10852 0.30144,-0.0965 0.50642,-0.27733 0.20499,-0.18087 0.20499,-0.51849 0,-0.2291 -0.1447,-0.38585 -0.14469,-0.16881 -0.37379,-0.26527 -0.2291,-0.10852 -0.51849,-0.15675 -0.28938,-0.0603 -0.56671,-0.0844 -0.27733,-0.0241 -0.51849,-0.0241 -0.24116,0 -0.38585,0 -1.03698,0 -1.89308,-0.36174 -0.84405,-0.36173 -1.459,-1.0008 -0.60289,-0.65112 -0.94051,-1.53134 -0.33762,-0.89228 -0.33762,-1.92926 0,-1.42282 0.56672,-2.5442 0.57877,-1.13344 1.53134,-1.9172 0.96463,-0.79581 2.20659,-1.21784 1.24195,-0.42202 2.56832,-0.42202 0.59083,0 1.21784,0.0482 0.627,0.0362 1.24195,0.14469 0.62701,0.10852 1.21785,0.27733 0.59083,0.16881 1.12137,0.42203 l -0.45819,4.89548 q -0.81994,-0.27733 -1.72427,-0.4582 -0.89228,-0.19292 -1.74839,-0.19292 -0.15675,0 -0.40997,0.0121 -0.24115,0 -0.51848,0.0362 -0.26528,0.0241 -0.54261,0.0844 -0.27733,0.0603 -0.49437,0.16881 -0.21704,0.0965 -0.34967,0.26527 -0.13264,0.16881 -0.12058,0.39791 0.012,0.26528 0.19292,0.43409 0.19293,0.15675 0.48232,0.25321 0.30144,0.0844 0.65112,0.12058 0.36173,0.0362 0.71141,0.0482 0.34968,0 0.65112,0 0.30145,-0.0121 0.49438,0.0121 0.96462,0.0603 1.73632,0.40996 0.7717,0.34968 1.30225,0.92846 0.5426,0.57877 0.81993,1.38665 0.28939,0.79581 0.28939,1.76044 z"
         style="font-size:24.69444466px;stroke-width:0.13229157"
         id="path3983"
         inkscape:connector-curvature="0" />
      <path
         d="m 199.32805,175.51323 -6.02891,0.28939 -0.0482,-5.57072 h -2.77331 l -0.16881,5.28133 h -5.40191 l 0.4582,-16.95332 5.73953,0.26528 -0.36173,8.65752 h 2.67684 l 0.0241,-9.30865 5.49837,0.1447 z"
         style="font-size:24.69444466px;stroke-width:0.13229157"
         id="path3985"
         inkscape:connector-curvature="0" />
    </g>
    <flowRoot
       xml:space="preserve"
       id="flowRoot3685"
       style="font-style:normal;font-variant:normal;font-weight:normal;font-stretch:normal;font-size:40px;line-height:1.25;font-family:'Luckiest Guy';-inkscape-font-specification:'Luckiest Guy';letter-spacing:0px;word-spacing:0px;fill:#000000;fill-opacity:1;stroke:none;stroke-width:0.4999997"
       transform="matrix(0.52916699,0,0,0.52916699,0.41341195,-159.6186)"><flowRegion
         id="flowRegion3687"
         style="stroke-width:0.4999997"><rect
           id="rect3689"
           width="87.283493"
           height="47.508736"
           x="202.18834"
           y="312.73785"
           style="stroke-width:0.4999997" /></flowRegion><flowPara
         id="flowPara3691"
         style="stroke-width:0.4999997"></flowPara></flowRoot>    <g
       style="stroke-width:0.4999997"
       id="g3927"
       transform="matrix(2.0000012,0,0,2.0000012,188.95636,-557.75489)">
      <g
         transform="rotate(-4.9431562,143.23282,86.127414)"
         id="g3736"
         style="stroke-width:0.4999997">
        <path
           sodipodi:nodetypes="ccscsc"
           inkscape:connector-curvature="0"
           id="path3728"
           d="m 39.171689,228.74185 c 8.185132,3.21558 50.864733,16.95491 61.973121,20.46282 5.99269,3.65407 6.28502,16.80875 -7.308149,21.3398 -10.554754,3.51825 -55.541949,-22.65527 -58.465208,-24.99388 -2.923262,-2.3386 -13.90261,-6.96626 -9.500598,-13.447 5.26187,-7.74664 9.500597,-5.1157 13.300834,-3.36174 z"
           style="opacity:1;fill:#4d4d4d;fill-opacity:1;fill-rule:evenodd;stroke:none;stroke-width:0.52916628;stroke-miterlimit:4;stroke-dasharray:none;stroke-dashoffset:0;stroke-opacity:1" />
        <path
           style="opacity:1;fill:#393939;fill-opacity:1;fill-rule:evenodd;stroke:none;stroke-width:0.52916628;stroke-miterlimit:4;stroke-dasharray:none;stroke-dashoffset:0;stroke-opacity:1"
           d="m 33.909821,230.9343 c 8.185132,3.21558 48.233798,16.66259 59.342186,20.1705 5.99269,3.65407 7.746653,17.97805 -3.21558,19.87817 -10.962233,1.90012 -54.080323,-17.8319 -57.003582,-20.17051 -2.923262,-2.3386 -8.915945,-8.18513 -7.746641,-15.93177 1.169305,-7.74664 4.82338,-5.70035 8.623617,-3.94639 z"
           id="path3730"
           inkscape:connector-curvature="0"
           sodipodi:nodetypes="ccscsc" />
        <path
           inkscape:connector-curvature="0"
           id="path3732"
           d="m 31.425049,236.70773 c 2.996343,0.0731 5.261869,1.90012 4.677217,4.53105 -0.584653,2.63094 -3.142504,3.06943 -4.38489,1.24239 -1.242385,-1.82704 -1.900121,-4.45797 -0.292327,-5.77344 z"
           style="opacity:1;fill:#232323;fill-opacity:1;fill-rule:evenodd;stroke:none;stroke-width:0.52916628;stroke-miterlimit:4;stroke-dasharray:none;stroke-dashoffset:0;stroke-opacity:1" />
      </g>
      <path
         inkscape:connector-curvature="0"
         id="path3683"
         d="m 10.779523,245.11211 -0.380868,17.11011 53.123372,17.15658 37.000323,-15.29623 -1.24023,-14.26269"
         style="opacity:1;fill:#968f7a;fill-opacity:1;fill-rule:evenodd;stroke:none;stroke-width:0.52916628;stroke-miterlimit:4;stroke-dasharray:none;stroke-dashoffset:0;stroke-opacity:1" />
      <path
         inkscape:connector-curvature="0"
         id="path3669"
         d="M 10.817972,245.14833 63.734638,261.4013 99.64237,249.68404 49.74952,237.5888 Z"
         style="opacity:1;fill:#9c9481;fill-opacity:1;fill-rule:evenodd;stroke:none;stroke-width:0.52916628;stroke-miterlimit:4;stroke-dasharray:none;stroke-dashoffset:0;stroke-opacity:1" />
      <g
         transform="translate(-26.60167,19.585845)"
         id="g3716"
         style="stroke-width:0.4999997">
        <path
           style="opacity:1;fill:#ffffff;fill-opacity:1;fill-rule:evenodd;stroke:none;stroke-width:0.52916628;stroke-miterlimit:4;stroke-dasharray:none;stroke-dashoffset:0;stroke-opacity:1"
           d="m 103.84883,228.44952 c 0.80389,1.9732 8.84286,3.43483 11.40071,2.48477 2.55785,-0.95006 1.86694,-8.05594 -1.82703,-8.98902 -2.99635,-0.8039 -9.28136,-0.43849 -9.57368,6.50425 z"
           id="path3693"
           inkscape:connector-curvature="0"
           sodipodi:nodetypes="cscc" />
        <circle
           style="opacity:1;fill:#000000;fill-opacity:1;fill-rule:evenodd;stroke:none;stroke-width:0.52916628;stroke-miterlimit:4;stroke-dasharray:none;stroke-dashoffset:0;stroke-opacity:1"
           id="path3695"
           cx="112.58206"
           cy="226.00128"
           r="3.4713719" />
      </g>
      <g
         transform="translate(-27.738552,19.379139)"
         id="g3712"
         style="stroke-width:0.4999997">
        <path
           style="opacity:1;fill:#4d4d4d;fill-opacity:1;fill-rule:evenodd;stroke:none;stroke-width:0.52916628;stroke-miterlimit:4;stroke-dasharray:none;stroke-dashoffset:0;stroke-opacity:1"
           d="m 39.171689,228.74185 c 8.185132,3.21558 50.864733,16.95491 61.973121,20.46282 5.99269,3.65407 6.28502,16.80875 -7.308149,21.3398 -10.554754,3.51825 -55.541949,-22.65527 -58.465208,-24.99388 -2.923262,-2.3386 -13.90261,-6.96626 -9.500598,-13.447 5.26187,-7.74664 9.500597,-5.1157 13.300834,-3.36174 z"
           id="path3697"
           inkscape:connector-curvature="0"
           sodipodi:nodetypes="ccscsc" />
        <path
           sodipodi:nodetypes="ccscsc"
           inkscape:connector-curvature="0"
           id="path3699"
           d="m 33.909821,230.9343 c 8.185132,3.21558 48.233798,16.66259 59.342186,20.1705 5.99269,3.65407 7.746653,17.97805 -3.21558,19.87817 -10.962233,1.90012 -54.080323,-17.8319 -57.003582,-20.17051 -2.923262,-2.3386 -8.915945,-8.18513 -7.746641,-15.93177 1.169305,-7.74664 4.82338,-5.70035 8.623617,-3.94639 z"
           style="opacity:1;fill:#393939;fill-opacity:1;fill-rule:evenodd;stroke:none;stroke-width:0.52916628;stroke-miterlimit:4;stroke-dasharray:none;stroke-dashoffset:0;stroke-opacity:1" />
        <path
           style="opacity:1;fill:#232323;fill-opacity:1;fill-rule:evenodd;stroke:none;stroke-width:0.52916628;stroke-miterlimit:4;stroke-dasharray:none;stroke-dashoffset:0;stroke-opacity:1"
           d="m 31.425049,236.70773 c 2.996343,0.0731 5.261869,1.90012 4.677217,4.53105 -0.584653,2.63094 -3.142504,3.06943 -4.38489,1.24239 -1.242385,-1.82704 -1.900121,-4.45797 -0.292327,-5.77344 z"
           id="path3704"
           inkscape:connector-curvature="0" />
        <path
           style="opacity:1;fill:#232323;fill-opacity:1;fill-rule:evenodd;stroke:none;stroke-width:0.52916628;stroke-miterlimit:4;stroke-dasharray:none;stroke-dashoffset:0;stroke-opacity:1"
           d="m 76.746342,253.89139 c 3.87332,0.95006 5.627278,3.43483 4.7503,5.62727 -0.87698,2.19245 -3.654075,1.75396 -5.261869,1.75396 -1.607793,0 -4.165648,-2.04628 -3.87332,-4.67722 0.292325,-2.63093 2.630935,-3.58099 4.384889,-2.70401 z"
           id="path3706"
           inkscape:connector-curvature="0" />
      </g>
      <path
         sodipodi:nodetypes="sssss"
         inkscape:connector-curvature="0"
         id="path3748"
         d="m 51.035974,237.92459 c 0.07997,0.85122 -0.19665,1.05077 -1.315467,1.03752 -0.954787,-0.0113 -1.420745,-0.0399 -1.315467,-1.03752 0.0826,-0.78271 0.588954,-1.42509 1.315467,-1.42509 0.726513,0 1.24185,0.64149 1.315467,1.42509 z"
         style="opacity:1;fill:#d40000;fill-opacity:1;fill-rule:evenodd;stroke:none;stroke-width:0.52916628;stroke-miterlimit:4;stroke-dasharray:none;stroke-dashoffset:0;stroke-opacity:1" />
      <path
         style="opacity:1;fill:#d40000;fill-opacity:1;fill-rule:evenodd;stroke:none;stroke-width:0.52916628;stroke-miterlimit:4;stroke-dasharray:none;stroke-dashoffset:0;stroke-opacity:1"
         d="m 54.033207,238.54471 c 0.07997,0.85122 -0.19665,1.05077 -1.315467,1.03752 -0.954787,-0.0113 -1.420745,-0.0399 -1.315467,-1.03752 0.0826,-0.78271 0.588954,-1.42509 1.315467,-1.42509 0.726513,0 1.24185,0.64149 1.315467,1.42509 z"
         id="path3751"
         inkscape:connector-curvature="0"
         sodipodi:nodetypes="sssss" />
      <path
         sodipodi:nodetypes="sssss"
         inkscape:connector-curvature="0"
         id="path3753"
         d="m 57.237146,239.31986 c 0.07997,0.85122 -0.19665,1.05077 -1.315467,1.03752 -0.954787,-0.0113 -1.420745,-0.0399 -1.315467,-1.03752 0.0826,-0.78271 0.588954,-1.42509 1.315467,-1.42509 0.726513,0 1.24185,0.64149 1.315467,1.42509 z"
         style="opacity:1;fill:#36a200;fill-opacity:1;fill-rule:evenodd;stroke:none;stroke-width:0.52916628;stroke-miterlimit:4;stroke-dasharray:none;stroke-dashoffset:0;stroke-opacity:1" />
      <g
         transform="translate(-28.151963,18.087229)"
         id="g3772"
         style="stroke-width:0.4999997">
        <g
           id="g3758"
           transform="translate(1.2402344,2.273763)"
           style="stroke-width:0.4999997">
          <path
             sodipodi:nodetypes="ccccccc"
             inkscape:connector-curvature="0"
             id="path3740"
             d="m 73.587239,227.34015 1.653645,-3.514 11.058756,2.99723 9.818523,-3.77238 -15.296224,-1.49861 -5.994466,1.65364 z"
             style="opacity:1;fill:#766c56;fill-opacity:1;fill-rule:evenodd;stroke:none;stroke-width:0.52916628;stroke-miterlimit:4;stroke-dasharray:none;stroke-dashoffset:0;stroke-opacity:1" />
          <path
             inkscape:connector-curvature="0"
             id="path3742"
             d="m 73.173827,228.37368 1.757,-4.96094 12.60905,2.68717 0.02508,12.71456 z"
             style="opacity:1;fill:#766c56;fill-opacity:1;fill-rule:evenodd;stroke:none;stroke-width:0.52916628;stroke-miterlimit:4;stroke-dasharray:none;stroke-dashoffset:0;stroke-opacity:1"
             sodipodi:nodetypes="ccccc" />
          <path
             sodipodi:nodetypes="ccccc"
             inkscape:connector-curvature="0"
             id="path3746"
             d="m 87.539875,225.89321 -0.206704,12.81576 14.303979,-5.06277 -5.62234,-10.54352 z"
             style="opacity:1;fill:#363636;fill-opacity:1;fill-rule:evenodd;stroke:none;stroke-width:0.52916628;stroke-miterlimit:4;stroke-dasharray:none;stroke-dashoffset:0;stroke-opacity:1" />
        </g>
        <path
           style="opacity:1;fill:#000000;fill-opacity:1;fill-rule:evenodd;stroke:none;stroke-width:0.52916628;stroke-miterlimit:4;stroke-dasharray:none;stroke-dashoffset:0;stroke-opacity:1"
           d="M 101.52168,235.78946 C 98.854207,235.35097 88.830577,233.0902 88.830577,233.0902 l 0.182702,-4.85993 7.527398,-2.30206 4.818803,9.54013 z"
           id="path3760"
           inkscape:connector-curvature="0"
           sodipodi:nodetypes="cccccc" />
        <path
           style="opacity:1;fill:#80765d;fill-opacity:1;fill-rule:evenodd;stroke:none;stroke-width:0.52916628;stroke-miterlimit:4;stroke-dasharray:none;stroke-dashoffset:0;stroke-opacity:1"
           d="m 89.621933,240.77522 c -0.03654,-0.21925 -0.09708,-11.92375 -0.09708,-11.92375 l 7.856262,-2.92326 0.08822,-0.65146 -8.841026,2.74682 -0.05351,12.92289 z"
           id="path3762"
           inkscape:connector-curvature="0"
           sodipodi:nodetypes="ccccccc" />
      </g>
      <path
         sodipodi:nodetypes="ccsccc"
         inkscape:connector-curvature="0"
         id="path3764"
         d="m 62.777019,260.23998 c 0,0 34.567551,-11.47379 35.006041,-11.40071 0.2249,0.0375 1.49964,0.24372 2.18978,1.43252 0.65547,1.12908 0.73349,3.24469 0.73349,3.24469 l -34.786808,12.27769 -3.069421,-2.19243"
         style="opacity:1;fill:#f9f9f9;fill-opacity:1;fill-rule:evenodd;stroke:none;stroke-width:0.52916628;stroke-miterlimit:4;stroke-dasharray:none;stroke-dashoffset:0;stroke-opacity:1" />
      <path
         sodipodi:nodetypes="ccssccc"
         inkscape:connector-curvature="0"
         id="path3774"
         d="m 160.79984,236.53195 -111.374614,39.038 c 0,0 -3.973815,10.12242 -3.180121,9.89071 1.001354,-0.29232 2.788279,2.22069 7.473225,0.5302 26.45957,-9.5475 112.86927,-44.49797 112.86927,-44.49797 l 0.41341,-5.78776 z"
         style="opacity:1;fill:#f9f9f9;fill-opacity:1;fill-rule:evenodd;stroke:none;stroke-width:0.52916628;stroke-miterlimit:4;stroke-dasharray:none;stroke-dashoffset:0;stroke-opacity:1" />
      <path
         sodipodi:nodetypes="ccccc"
         inkscape:connector-curvature="0"
         id="path3776"
         d="m 64.658909,263.56581 6.304524,6.51123 6.407877,-1.86035 -8.888346,-8.47494 c -1.10243,0.55122 -4.311057,8.9948 -3.824055,3.82406 z"
         style="opacity:1;fill:#f9f9f9;fill-opacity:1;fill-rule:evenodd;stroke:none;stroke-width:0.52916628;stroke-miterlimit:4;stroke-dasharray:none;stroke-dashoffset:0;stroke-opacity:1" />
      <path
         sodipodi:nodetypes="ccccc"
         inkscape:connector-curvature="0"
         id="path3778"
         d="m 93.70106,254.1607 c 1.24024,0.62011 46.9222,-5.78776 47.74903,-5.99447 0.82682,-0.2067 6.82128,-4.54752 6.82128,-4.54752 l -52.08983,5.89111 z"
         style="opacity:1;fill:#f9f9f9;fill-opacity:1;fill-rule:evenodd;stroke:none;stroke-width:0.52916628;stroke-miterlimit:4;stroke-dasharray:none;stroke-dashoffset:0;stroke-opacity:1" />
      <path
         sodipodi:nodetypes="ccccc"
         inkscape:connector-curvature="0"
         id="path3780"
         d="m 72.496859,266.15958 c 1.900111,-0.87698 36.248431,-16.80874 36.248431,-16.80874 0.57997,0.3914 1.83867,5.81788 1.02314,3.06942 L 73.95849,268.0597 Z"
         style="opacity:1;fill:#f9f9f9;fill-opacity:1;fill-rule:evenodd;stroke:none;stroke-width:0.52916628;stroke-miterlimit:4;stroke-dasharray:none;stroke-dashoffset:0;stroke-opacity:1" />
      <path
         sodipodi:nodetypes="ccscsc"
         inkscape:connector-curvature="0"
         id="path3782"
         d="m 27.778147,243.54411 c 0.775147,0.0517 14.504866,-3.4394 14.504866,-3.4394 0,0 -4.030761,-1.18856 -4.392496,-1.18856 -0.361736,0 -13.125813,2.37712 -13.125813,2.37712 0,0 -0.981852,2.11873 -0.671795,2.11873 0.31006,0 3.685238,0.13211 3.685238,0.13211 z"
         style="opacity:1;fill:#f9f9f9;fill-opacity:1;fill-rule:evenodd;stroke:none;stroke-width:0.52916628;stroke-miterlimit:4;stroke-dasharray:none;stroke-dashoffset:0;stroke-opacity:1" />
      <path
         inkscape:connector-curvature="0"
         id="path3784"
         d="m 3.3706598,233.49013 c 3.100586,-0.20671 35.5533852,-9.09506 35.5533852,-9.09506 l -8.888346,-1.03352 c 0,0 -33.0729162,7.02799 -31.00585924,7.4414 2.06705704,0.41341 4.34082004,2.68718 4.34082004,2.68718 z"
         style="opacity:1;fill:#f9f9f9;fill-opacity:1;fill-rule:evenodd;stroke:none;stroke-width:0.52916628;stroke-miterlimit:4;stroke-dasharray:none;stroke-dashoffset:0;stroke-opacity:1" />
      <path
         sodipodi:nodetypes="cccccc"
         inkscape:connector-curvature="0"
         id="path3786"
         d="m -1.3835712,230.6996 0.258382,4.49585 c 0,0 4.444174,1.18856 4.392498,0.77514 -0.05168,-0.41341 0.103351,-2.79052 0.103351,-2.79052 -0.608978,-1.46207 -2.336902,-2.32737 -5.012613,-2.68718 z"
         style="opacity:1;fill:#f9f9f9;fill-opacity:1;fill-rule:evenodd;stroke:none;stroke-width:0.52916628;stroke-miterlimit:4;stroke-dasharray:none;stroke-dashoffset:0;stroke-opacity:1" />
      <path
         sodipodi:nodetypes="ccccc"
         inkscape:connector-curvature="0"
         id="path3788"
         d="m 3.1122788,235.81556 c 0,0 35.2950032,-7.38973 35.1916492,-7.90649 -0.103351,-0.51676 0,-3.514 0,-3.514 l -34.6232072,7.95817 z"
         style="opacity:1;fill:#f9f9f9;fill-opacity:1;fill-rule:evenodd;stroke:none;stroke-width:0.52916628;stroke-miterlimit:4;stroke-dasharray:none;stroke-dashoffset:0;stroke-opacity:1" />
      <path
         sodipodi:nodetypes="ccccc"
         inkscape:connector-curvature="0"
         id="path3790"
         d="m 3.2673088,234.52365 c 0.620117,0.10336 21.2906902,8.68165 21.2906902,8.68165 l 2.480468,-2.17041 -21.2906892,-9.40512 z"
         style="opacity:1;fill:#f9f9f9;fill-opacity:1;fill-rule:evenodd;stroke:none;stroke-width:0.52916628;stroke-miterlimit:4;stroke-dasharray:none;stroke-dashoffset:0;stroke-opacity:1" />
      <path
         inkscape:connector-curvature="0"
         id="path3792"
         d="m 37.993871,239.27789 -0.930177,-12.40235 -3.307292,-0.10335 1.550294,13.22916 z"
         style="opacity:1;fill:#f9f9f9;fill-opacity:1;fill-rule:evenodd;stroke:none;stroke-width:0.52916628;stroke-miterlimit:4;stroke-dasharray:none;stroke-dashoffset:0;stroke-opacity:1" />
      <path
         inkscape:connector-curvature="0"
         id="path3794"
         d="m 19.080296,237.9343 c 0.413411,0 16.536458,-4.23747 16.536458,-4.23747 l -0.413412,-1.757 -19.740395,4.34082 z"
         style="opacity:1;fill:#f9f9f9;fill-opacity:1;fill-rule:evenodd;stroke:none;stroke-width:0.52916628;stroke-miterlimit:4;stroke-dasharray:none;stroke-dashoffset:0;stroke-opacity:1" />
    </g>
  </g>
</svg>
